<?xml version="1.0" standalone="no"?>
<!DOCTYPE svg PUBLIC "-//W3C//DTD SVG 20010904//EN"
 "http://www.w3.org/TR/2001/REC-SVG-20010904/DTD/svg10.dtd">
<svg version="1.0" xmlns="http://www.w3.org/2000/svg"
 width="1754.000000pt" height="1241.000000pt" viewBox="0 0 1754.000000 1241.000000"
 preserveAspectRatio="xMidYMid meet">

<g transform="translate(0.000000,1241.000000) scale(0.100000,-0.100000)"
fill="#000000" stroke="none">
<path d="M9565 11975 c-22 -20 -52 -47 -67 -60 -14 -14 -33 -25 -40 -25 -22 0
-78 -72 -78 -100 0 -11 96 36 106 51 3 5 13 9 23 9 10 0 24 6 30 14 7 8 27 14
46 13 52 -1 77 26 73 82 -3 41 -6 46 -28 49 -17 2 -38 -9 -65 -33z"/>
<path d="M4398 11968 c-23 -49 -48 -130 -48 -157 0 -21 -13 -68 -42 -156 -6
-16 -12 -41 -15 -55 -3 -14 -11 -39 -19 -57 -8 -17 -14 -42 -14 -55 0 -13 -5
-29 -12 -36 -6 -6 -14 -30 -18 -54 -5 -24 -13 -59 -20 -78 -6 -19 -17 -48 -22
-65 -6 -16 -13 -46 -16 -65 -2 -19 -11 -44 -18 -55 -8 -11 -14 -31 -14 -45 0
-15 -7 -35 -15 -46 -8 -10 -15 -33 -15 -50 0 -16 -7 -39 -15 -50 -8 -10 -15
-32 -15 -49 0 -16 -7 -39 -15 -49 -8 -11 -15 -38 -15 -60 -1 -23 -7 -52 -15
-66 -8 -14 -14 -39 -15 -56 0 -17 -7 -37 -15 -44 -8 -7 -15 -25 -15 -39 0 -15
-7 -36 -15 -47 -8 -10 -15 -31 -15 -45 0 -14 -7 -34 -15 -45 -8 -10 -15 -31
-15 -45 0 -14 -7 -34 -15 -45 -8 -10 -15 -31 -15 -45 0 -14 -7 -34 -15 -45 -8
-10 -15 -28 -15 -38 0 -11 -6 -27 -13 -35 -13 -15 -37 -86 -37 -108 0 -14 85
-54 102 -48 19 7 38 83 47 185 4 47 12 95 19 107 7 12 12 36 12 53 0 17 7 47
15 67 8 19 15 48 15 64 0 16 6 46 14 66 8 21 17 54 20 73 7 38 41 80 65 80 9
0 25 7 35 15 15 11 48 15 122 15 57 0 105 4 108 9 11 18 87 22 119 6 17 -8 38
-13 48 -10 25 8 59 -45 69 -108 15 -88 31 -160 46 -207 8 -25 14 -67 14 -93 0
-27 5 -58 11 -69 6 -12 12 -56 13 -99 1 -43 4 -81 8 -84 6 -6 46 16 80 45 22
18 24 94 3 130 -8 14 -15 41 -15 60 0 19 -7 44 -15 54 -8 11 -15 41 -15 66 0
25 -7 55 -15 66 -8 10 -15 39 -15 64 0 25 -7 56 -15 70 -8 14 -15 43 -15 65 0
22 -7 51 -15 65 -8 14 -15 43 -15 65 0 22 -7 51 -15 65 -8 14 -15 43 -15 65 0
22 -7 51 -15 65 -8 14 -15 43 -15 65 0 22 -7 51 -15 65 -8 14 -14 42 -15 63 0
21 -7 54 -15 74 -8 19 -15 51 -15 70 0 18 -7 50 -15 70 -8 19 -15 51 -15 70 0
18 -7 50 -15 70 -8 19 -15 53 -15 74 0 21 -5 50 -11 66 -6 15 -15 60 -20 98
-17 143 -22 165 -34 165 -6 0 -19 -15 -27 -32z m19 -348 c18 -70 39 -168 53
-245 6 -33 15 -69 20 -80 5 -11 13 -49 19 -85 16 -104 31 -183 42 -216 17 -56
11 -91 -18 -112 -23 -16 -53 -20 -168 -25 -77 -4 -156 -3 -175 1 l-35 8 0 76
c1 42 6 82 12 90 6 7 14 32 18 55 4 24 10 45 15 48 4 3 11 28 15 55 4 27 11
52 15 55 5 3 12 26 16 50 3 25 10 48 15 50 4 3 11 26 15 50 3 25 10 48 15 50
4 3 11 26 15 52 4 25 13 58 20 72 8 14 14 37 14 50 0 29 28 63 49 59 8 -2 20
-25 28 -58z"/>
<path d="M213 11897 c-24 -7 -33 -16 -33 -31 0 -12 -2 -406 -4 -876 -2 -470
-7 -883 -11 -917 l-7 -63 79 0 c54 0 85 5 99 15 10 8 29 15 42 15 12 0 22 4
22 9 0 5 13 12 28 16 47 10 137 101 158 158 3 9 10 17 14 17 5 0 12 15 15 33
4 17 14 41 21 52 8 11 14 31 14 46 0 15 7 44 16 64 13 31 15 71 12 211 -2 121
-7 177 -15 186 -7 6 -13 24 -13 39 0 15 -5 31 -10 34 -6 4 -17 21 -24 40 -14
33 -120 145 -137 145 -18 0 -8 41 21 88 17 27 30 54 30 59 0 6 7 24 15 39 8
16 15 38 15 50 0 11 6 26 13 33 8 8 12 55 12 161 0 106 -4 153 -12 162 -7 6
-13 22 -13 34 0 12 -7 27 -15 34 -8 7 -15 18 -15 24 0 30 -80 78 -150 91 -40
8 -98 24 -120 34 -8 4 -30 3 -47 -2z m177 -122 c38 -19 70 -53 84 -90 22 -59
30 -118 30 -220 1 -127 -3 -142 -58 -253 -24 -50 -37 -65 -58 -69 -16 -3 -28
-9 -28 -13 0 -4 -14 -13 -31 -20 -27 -12 -33 -11 -52 9 -22 21 -22 27 -22 324
0 301 0 302 23 335 27 37 35 36 112 -3z m-61 -772 c9 -16 12 -16 20 -3 9 12
15 13 48 1 21 -7 52 -22 70 -33 32 -19 103 -115 103 -140 0 -7 8 -25 17 -38
15 -21 18 -49 18 -190 0 -167 -11 -233 -51 -312 -8 -14 -14 -33 -14 -42 0 -9
-7 -19 -15 -22 -8 -4 -15 -13 -15 -22 0 -23 -70 -92 -93 -92 -10 0 -32 -8 -48
-17 -28 -17 -31 -17 -67 2 -20 11 -40 24 -44 30 -9 12 -10 764 -2 817 6 36 35
78 54 78 5 0 14 -8 19 -17z"/>
<path d="M12154 11864 c-4 -14 -3 -48 1 -77 4 -29 6 -399 6 -824 -2 -639 -4
-782 -16 -828 -20 -75 -8 -95 55 -95 25 0 52 6 58 12 9 9 61 14 159 17 120 3
149 1 157 -11 6 -8 26 -18 43 -21 31 -6 34 -4 48 29 18 44 19 65 3 99 -9 21
-18 25 -53 25 -23 0 -57 -8 -76 -17 -52 -26 -197 -21 -258 9 l-46 23 -3 530
c-2 466 2 656 25 1025 4 68 2 78 -19 103 -32 36 -75 37 -84 1z"/>
<path d="M12848 11859 c-3 -17 -1 -95 5 -173 5 -77 9 -152 8 -166 0 -14 -3
-320 -6 -680 -3 -418 -9 -676 -17 -712 -8 -45 -8 -61 2 -73 15 -19 101 -20
118 -2 9 8 58 13 153 15 114 3 143 1 157 -11 9 -8 31 -18 48 -21 29 -7 33 -4
43 25 14 40 14 84 1 110 -8 15 -21 19 -60 19 -26 0 -50 -5 -52 -10 -6 -18
-107 -28 -185 -19 -93 10 -129 33 -138 89 -10 60 4 1311 16 1372 5 29 10 89
11 134 1 98 -17 133 -68 134 -28 0 -32 -4 -36 -31z"/>
<path d="M5977 11559 c-9 -10 -17 -32 -17 -47 0 -15 -6 -36 -14 -47 -7 -11
-16 -47 -19 -79 -3 -33 -10 -62 -15 -65 -5 -3 -12 -23 -16 -45 -4 -21 -11 -46
-15 -55 -13 -26 -39 -113 -46 -153 -4 -21 -11 -38 -15 -38 -4 0 -11 -20 -14
-45 -4 -24 -11 -47 -15 -50 -5 -2 -12 -25 -15 -50 -4 -24 -11 -47 -16 -50 -4
-3 -11 -24 -15 -48 -4 -23 -11 -47 -16 -52 -8 -10 -20 -53 -40 -145 -6 -25
-17 -59 -25 -77 -8 -17 -14 -38 -14 -46 0 -8 -7 -28 -15 -43 -8 -16 -15 -36
-15 -45 0 -9 -7 -30 -15 -45 -8 -16 -15 -39 -15 -51 0 -12 -4 -25 -10 -28 -5
-3 -14 -24 -20 -45 -12 -46 -26 -51 -42 -15 -9 20 -18 25 -47 25 -20 0 -45 -7
-55 -15 -31 -24 -176 -21 -208 4 -39 31 -53 128 -39 276 8 94 16 618 14 983
-1 45 -21 71 -55 72 -13 0 -18 -8 -18 -27 0 -16 0 -314 -1 -663 0 -349 -3
-654 -8 -676 -4 -24 -4 -49 1 -58 10 -18 68 -22 84 -7 13 14 250 17 266 4 7
-6 28 -14 46 -18 17 -3 32 -10 32 -15 0 -10 61 -32 68 -25 14 13 32 86 38 145
3 36 12 82 20 103 8 20 14 50 14 66 0 16 7 42 15 57 8 16 15 43 15 61 0 75 58
123 148 123 31 1 77 6 102 11 82 19 108 21 114 10 4 -6 20 -11 36 -11 25 0 32
-7 50 -46 11 -26 20 -63 20 -84 0 -21 7 -51 15 -66 8 -16 15 -47 15 -69 0 -22
7 -58 15 -80 8 -22 14 -70 15 -108 l0 -67 35 22 c34 22 35 25 35 88 -1 41 -6
72 -15 84 -8 11 -15 36 -15 57 0 20 -7 50 -15 65 -8 16 -15 45 -15 65 0 20 -7
50 -15 65 -8 16 -15 47 -15 69 0 22 -7 49 -15 59 -8 11 -15 40 -15 65 0 25 -7
55 -15 65 -8 11 -15 38 -15 60 -1 23 -7 52 -15 66 -8 14 -15 43 -15 65 0 22
-7 51 -15 65 -8 14 -14 44 -15 66 0 23 -7 58 -15 77 -8 20 -15 56 -15 81 0 24
-7 57 -15 72 -8 16 -15 49 -15 74 0 25 -9 68 -19 97 -17 50 -18 51 -34 32z
m11 -264 c2 -16 10 -44 18 -62 7 -17 14 -47 14 -66 0 -19 7 -48 15 -63 8 -16
15 -49 15 -74 0 -26 5 -51 11 -57 5 -5 13 -37 16 -69 2 -32 11 -73 19 -91 40
-89 5 -117 -159 -127 -62 -4 -120 -4 -128 -1 -23 9 -38 46 -28 70 4 11 8 36 9
55 0 19 7 44 15 54 8 11 15 34 15 50 0 17 7 40 15 50 8 11 15 34 15 51 0 17 7
40 15 51 8 10 15 33 15 49 0 17 7 41 15 55 8 14 14 37 15 51 0 14 7 34 15 45
8 10 15 29 15 42 0 18 5 23 23 20 16 -2 23 -11 25 -33z"/>
<path d="M7488 11555 c-10 -13 -18 -37 -18 -53 0 -16 -7 -35 -15 -42 -10 -8
-15 -30 -15 -64 0 -30 -6 -60 -15 -72 -8 -10 -15 -31 -15 -45 0 -14 -7 -34
-15 -45 -8 -10 -15 -30 -15 -44 0 -14 -7 -38 -15 -54 -8 -15 -15 -38 -15 -50
0 -11 -7 -34 -15 -50 -8 -15 -15 -38 -15 -50 -1 -11 -7 -32 -15 -46 -8 -14
-14 -37 -15 -51 0 -14 -7 -34 -15 -45 -8 -10 -15 -33 -15 -50 0 -16 -7 -39
-15 -50 -8 -10 -15 -29 -15 -42 0 -13 -5 -33 -12 -45 -6 -12 -15 -42 -19 -67
-7 -46 -32 -122 -49 -152 -6 -10 -10 -26 -10 -35 0 -10 -7 -31 -15 -46 -8 -15
-17 -43 -21 -63 -3 -19 -10 -37 -15 -40 -5 -3 -9 -13 -9 -22 0 -10 -9 -33 -19
-53 -36 -67 -31 -102 16 -117 20 -6 38 -10 38 -9 14 24 35 122 35 161 1 28 7
62 15 76 8 14 15 43 15 65 0 22 7 51 15 65 8 14 14 44 15 66 0 24 6 47 15 54
8 7 15 18 15 25 0 20 71 43 151 48 42 3 95 11 118 18 33 10 47 10 62 1 10 -7
30 -12 43 -12 31 0 66 -64 66 -123 1 -23 7 -53 15 -67 8 -14 15 -43 15 -65 0
-22 7 -58 15 -80 8 -22 14 -72 15 -112 l0 -72 35 20 c34 20 35 23 35 84 0 36
-6 75 -15 91 -8 16 -15 43 -15 60 0 17 -7 48 -15 67 -8 20 -15 51 -15 70 0 18
-5 38 -10 43 -6 6 -13 35 -17 65 -3 30 -12 66 -19 81 -8 15 -14 42 -14 61 0
19 -7 48 -15 63 -8 16 -15 45 -15 65 0 20 -7 50 -15 65 -8 16 -15 45 -15 65 0
20 -7 50 -15 65 -8 16 -15 49 -15 75 0 25 -5 50 -11 56 -5 5 -13 37 -15 69 -3
32 -12 76 -20 97 -8 20 -14 60 -14 87 0 27 -4 52 -10 55 -5 3 -10 19 -10 35 0
38 -11 43 -32 15z m10 -255 c2 -14 10 -39 18 -57 8 -17 14 -48 14 -70 1 -21 7
-49 15 -63 8 -14 15 -45 15 -70 0 -25 7 -56 15 -70 8 -14 15 -47 15 -75 0 -27
7 -61 15 -75 8 -14 14 -42 15 -62 0 -33 -4 -39 -33 -52 -42 -17 -256 -30 -277
-17 -20 14 -16 135 5 167 8 13 15 39 15 57 0 19 7 40 15 47 8 7 15 27 15 44 0
18 7 41 15 52 8 10 15 35 15 54 0 19 7 44 15 54 8 11 15 33 15 49 0 16 6 41
14 55 8 15 17 35 20 45 8 27 40 17 44 -13z"/>
<path d="M1258 11528 c-10 -10 -18 -33 -18 -52 0 -18 -7 -39 -15 -46 -10 -8
-15 -31 -15 -66 0 -33 -5 -58 -15 -68 -8 -8 -15 -28 -15 -43 0 -16 -7 -38 -15
-49 -8 -10 -15 -30 -15 -44 0 -14 -7 -36 -15 -50 -8 -14 -14 -39 -15 -56 0
-16 -7 -39 -15 -50 -8 -10 -15 -30 -15 -44 0 -14 -7 -36 -15 -50 -8 -14 -14
-37 -15 -51 0 -14 -7 -34 -15 -45 -8 -10 -15 -33 -15 -50 0 -16 -7 -39 -15
-50 -8 -10 -15 -30 -15 -44 0 -14 -7 -36 -15 -50 -8 -14 -14 -41 -15 -61 0
-19 -7 -44 -15 -55 -8 -10 -15 -28 -15 -39 0 -11 -7 -33 -15 -49 -8 -15 -15
-36 -15 -45 0 -9 -7 -29 -15 -45 -8 -15 -15 -36 -15 -45 0 -9 -7 -29 -15 -45
-8 -15 -15 -33 -15 -40 0 -6 -9 -27 -19 -47 -36 -67 -31 -102 16 -117 20 -6
38 -10 38 -9 14 24 35 122 35 161 1 28 7 62 15 76 8 14 15 43 15 65 0 22 7 51
15 65 8 14 14 44 15 66 0 24 6 47 15 54 8 7 15 18 15 24 0 25 66 49 160 57 52
4 111 11 131 14 23 4 39 3 43 -4 4 -6 20 -11 36 -11 23 0 32 -8 49 -40 12 -22
21 -58 21 -79 0 -21 7 -52 15 -67 8 -16 15 -45 15 -65 0 -20 7 -56 15 -79 8
-23 15 -76 15 -116 l0 -73 36 21 35 21 -4 71 c-4 69 -13 111 -43 206 -8 25
-14 59 -14 76 0 18 -7 45 -15 60 -8 16 -15 43 -15 60 0 17 -7 48 -15 67 -8 20
-15 51 -15 70 0 18 -5 38 -10 43 -6 6 -13 35 -17 64 -3 30 -12 65 -20 79 -7
15 -13 42 -13 62 0 20 -7 50 -15 65 -8 16 -15 48 -15 70 0 23 -7 58 -15 77 -8
20 -15 54 -15 75 0 22 -7 56 -15 75 -8 20 -15 59 -15 86 0 27 -4 53 -10 56 -5
3 -10 19 -10 35 0 36 -10 42 -32 18z m12 -263 c0 -13 7 -36 15 -51 8 -16 15
-47 15 -69 1 -22 7 -51 15 -65 8 -14 15 -45 15 -70 0 -25 7 -56 15 -70 8 -14
15 -47 15 -75 0 -27 7 -61 15 -75 8 -14 14 -41 15 -61 0 -32 -4 -38 -37 -53
-21 -9 -49 -16 -63 -15 -14 1 -63 -1 -110 -5 -53 -4 -91 -3 -100 3 -20 14 -16
135 5 167 8 13 15 39 15 57 0 19 7 40 15 47 8 7 15 27 15 44 0 17 7 44 15 60
8 15 15 40 15 55 0 15 7 36 15 47 8 10 15 33 15 50 0 16 7 39 15 50 8 10 15
26 15 35 0 8 5 20 12 27 16 16 38 -3 38 -33z"/>
<path d="M6703 11524 c-29 -13 -53 -27 -53 -32 0 -4 -19 -28 -42 -54 -50 -52
-59 -67 -89 -128 -12 -25 -25 -52 -30 -60 -17 -29 -38 -105 -48 -181 -5 -30
-13 -64 -18 -75 -10 -19 -26 -163 -27 -244 0 -91 17 -246 30 -265 8 -11 14
-34 14 -51 0 -17 7 -37 15 -44 8 -7 15 -23 15 -35 0 -12 7 -28 15 -35 8 -7 15
-19 15 -26 0 -8 8 -22 18 -32 9 -10 29 -32 43 -50 31 -39 90 -82 144 -105 22
-10 48 -22 57 -27 10 -6 29 -10 43 -10 14 0 42 -7 62 -15 19 -8 51 -15 70 -15
l34 0 -3 78 -3 77 -30 -3 c-16 -2 -34 -8 -39 -13 -13 -12 -93 -12 -101 1 -3 6
-16 10 -27 10 -26 0 -81 34 -131 80 -40 36 -97 113 -97 131 0 6 -7 17 -15 25
-8 9 -15 24 -15 35 0 11 -5 30 -12 42 -6 12 -15 40 -19 62 -4 22 -13 62 -19
88 -16 64 -10 321 8 339 6 6 12 32 12 57 0 26 7 59 15 75 8 15 15 36 15 44 0
21 42 126 53 130 4 2 7 12 7 21 0 23 33 60 89 100 39 27 52 31 113 31 l69 0
43 -46 44 -46 16 33 c20 39 30 100 19 114 -4 6 -25 18 -46 28 -55 25 -149 21
-214 -9z"/>
<path d="M14018 11525 c-10 -13 -18 -36 -18 -52 0 -15 -7 -37 -15 -47 -8 -11
-15 -41 -15 -66 0 -25 -7 -55 -15 -66 -8 -10 -15 -33 -15 -50 0 -17 -7 -37
-15 -44 -8 -7 -15 -27 -15 -44 0 -18 -7 -41 -15 -52 -8 -10 -15 -33 -15 -50 0
-16 -7 -39 -15 -50 -8 -10 -15 -32 -15 -47 0 -16 -6 -41 -14 -55 -8 -15 -18
-44 -21 -64 -3 -21 -10 -38 -15 -38 -6 0 -10 -15 -10 -33 0 -18 -7 -42 -15
-53 -8 -10 -15 -33 -15 -50 0 -16 -7 -39 -15 -50 -8 -10 -15 -35 -15 -54 0
-19 -7 -48 -15 -64 -8 -15 -15 -36 -15 -45 0 -10 -7 -26 -15 -37 -8 -10 -15
-31 -15 -45 0 -14 -7 -34 -15 -45 -8 -10 -15 -31 -15 -45 0 -14 -7 -34 -15
-45 -8 -10 -15 -27 -15 -36 0 -10 -9 -34 -19 -55 -35 -67 -32 -90 15 -109 20
-8 37 -14 38 -12 17 33 30 88 35 150 3 42 12 83 19 90 6 6 12 33 12 58 0 25 7
55 15 66 8 10 15 36 15 58 0 48 32 101 73 123 18 9 73 20 122 24 50 5 109 11
131 15 26 4 44 2 48 -5 4 -6 18 -11 31 -11 31 0 65 -61 65 -117 1 -21 7 -49
15 -63 8 -14 14 -41 15 -61 0 -20 7 -58 15 -85 8 -27 15 -82 15 -121 0 -40 2
-73 5 -73 6 0 24 14 56 43 23 21 26 82 5 131 -7 18 -17 56 -21 84 -4 29 -10
54 -15 57 -4 3 -11 31 -15 62 -4 32 -10 63 -15 68 -4 6 -12 35 -18 65 -6 30
-18 84 -26 120 -8 36 -20 88 -26 115 -7 28 -18 72 -26 99 -8 26 -14 60 -14 75
0 15 -5 32 -11 38 -6 6 -13 39 -16 74 -3 35 -10 69 -15 76 -6 7 -12 41 -15 75
-3 35 -10 68 -15 75 -5 6 -13 42 -18 80 -12 90 -21 132 -29 137 -3 2 -14 -7
-23 -19z m12 -254 c1 -14 7 -37 15 -51 8 -14 15 -45 15 -70 0 -25 7 -54 15
-64 8 -11 15 -39 15 -62 0 -23 7 -58 15 -77 8 -20 15 -56 15 -79 1 -24 7 -54
15 -68 8 -14 14 -43 15 -66 0 -38 -3 -42 -37 -57 -22 -9 -83 -18 -143 -22
-136 -8 -145 -2 -142 86 2 35 9 74 17 86 8 12 15 35 15 51 0 15 7 37 15 48 8
10 15 33 15 50 0 16 7 39 15 50 8 10 15 33 15 49 0 17 6 39 14 50 7 11 16 40
19 65 3 24 11 46 16 48 6 2 11 14 11 26 0 12 5 27 11 33 18 18 39 4 39 -26z"/>
<path d="M8780 11522 c-6 -2 -10 -26 -10 -53 0 -53 0 -53 70 -49 19 1 39 6 45
11 19 19 71 10 96 -17 l24 -26 3 -381 c2 -245 -1 -432 -9 -522 -6 -77 -12
-189 -13 -250 l-1 -110 30 -3 c22 -1 35 4 48 23 16 23 17 30 6 58 -17 41 -22
671 -8 897 18 280 22 310 43 326 23 16 132 19 141 4 3 -5 31 -10 61 -10 l55 0
-3 48 -3 47 -74 3 c-41 2 -97 -2 -124 -8 -31 -6 -54 -7 -61 -1 -10 9 -294 20
-316 13z"/>
<path d="M2916 11505 c-11 -8 -28 -15 -37 -15 -10 0 -24 -9 -32 -20 -8 -11
-32 -39 -53 -62 -39 -43 -55 -65 -73 -105 -5 -11 -15 -24 -20 -28 -6 -3 -11
-17 -11 -29 0 -13 -7 -29 -15 -36 -8 -7 -15 -24 -15 -39 0 -14 -7 -39 -15 -55
-8 -15 -15 -47 -15 -70 0 -22 -6 -52 -13 -66 -14 -26 -31 -173 -31 -265 0 -96
17 -240 30 -260 8 -11 14 -34 14 -51 0 -17 7 -37 15 -44 8 -7 15 -23 15 -35 0
-12 7 -28 15 -35 8 -7 15 -19 15 -28 0 -26 142 -158 195 -181 28 -12 58 -26
67 -31 10 -6 32 -10 50 -10 18 -1 44 -7 58 -15 14 -8 42 -14 63 -15 l37 0 0
75 c0 86 -9 97 -61 71 -35 -17 -104 -22 -113 -7 -3 5 -22 12 -41 15 -19 4 -35
11 -35 16 0 6 -6 10 -14 10 -32 0 -166 146 -166 181 0 6 -7 17 -15 25 -8 9
-15 25 -15 37 -1 12 -7 33 -15 47 -8 14 -14 41 -15 60 0 20 -6 42 -12 48 -21
21 -24 300 -4 362 9 27 16 64 16 82 0 18 7 46 15 62 8 15 15 37 15 48 0 11 6
34 14 51 8 18 24 54 36 81 21 47 80 116 99 116 5 0 14 7 21 15 9 11 33 15 89
15 l77 0 34 -40 c18 -22 39 -40 45 -40 16 0 48 104 41 127 -16 46 -193 74
-240 38z"/>
<path d="M8005 11478 c-3 -24 -4 -86 -3 -138 3 -98 -6 -488 -22 -945 -5 -143
-6 -263 -1 -268 5 -5 21 -7 37 -5 l29 3 -3 110 c-1 61 -5 274 -8 475 -6 411 0
480 42 480 15 0 24 -6 24 -16 0 -9 6 -28 13 -42 8 -15 21 -43 30 -62 62 -137
77 -172 77 -178 1 -4 9 -25 20 -47 11 -22 19 -46 20 -52 0 -7 5 -13 10 -13 6
0 10 -7 10 -16 0 -9 9 -35 19 -58 63 -137 81 -178 81 -191 0 -8 5 -15 10 -15
6 0 10 -6 10 -12 0 -7 23 -58 50 -112 28 -55 50 -105 50 -112 0 -6 7 -17 15
-24 8 -7 15 -22 15 -34 0 -26 34 -96 52 -107 9 -6 18 5 30 34 22 53 22 85 2
199 -14 78 -16 139 -10 373 3 154 10 327 15 385 5 58 11 177 13 265 3 155 2
160 -17 163 -15 2 -25 -7 -38 -32 -14 -31 -15 -52 -6 -178 10 -151 11 -612 2
-810 l-6 -118 -28 21 c-16 11 -29 29 -29 38 0 10 -7 24 -15 31 -8 7 -15 20
-15 29 0 10 -7 26 -15 37 -8 10 -15 26 -15 35 0 9 -7 22 -15 29 -8 7 -15 23
-15 35 0 12 -7 28 -15 35 -8 7 -15 23 -15 35 0 12 -7 28 -15 35 -8 7 -15 23
-15 35 0 12 -7 28 -15 35 -8 7 -15 23 -15 35 0 12 -7 28 -15 35 -8 7 -15 23
-15 35 0 12 -7 28 -15 35 -8 7 -15 20 -15 29 0 9 -6 25 -14 36 -7 11 -16 32
-20 48 -3 15 -11 27 -16 27 -6 0 -10 8 -10 17 0 15 -26 79 -51 125 -5 10 -9
24 -9 32 0 7 -7 19 -15 26 -8 7 -15 19 -15 27 0 8 -6 29 -14 46 -7 18 -25 59
-38 92 -31 75 -54 83 -63 23z"/>
<path d="M9487 11500 c-16 -19 -17 -70 -20 -668 -2 -356 -7 -654 -11 -662 -10
-23 15 -50 48 -53 l28 -2 2 700 c1 616 -1 700 -14 703 -8 1 -23 -7 -33 -18z"/>
<path d="M15075 11500 c-28 -31 -45 -88 -45 -150 0 -30 -7 -68 -15 -84 -8 -15
-15 -47 -15 -70 -1 -22 -7 -52 -15 -66 -8 -14 -15 -43 -15 -65 0 -22 -7 -51
-15 -65 -8 -14 -15 -43 -15 -65 0 -22 -7 -51 -15 -65 -8 -14 -14 -41 -15 -60
0 -19 -7 -48 -15 -64 -8 -15 -15 -45 -15 -65 0 -20 -7 -49 -15 -65 -8 -15 -15
-45 -15 -65 0 -20 -7 -49 -15 -65 -8 -15 -15 -42 -15 -60 0 -17 -7 -44 -15
-60 -8 -15 -15 -36 -15 -45 0 -17 -18 -41 -31 -41 -14 0 -49 81 -49 113 -1 18
-7 43 -15 57 -8 14 -14 47 -15 73 0 26 -7 64 -15 84 -8 19 -15 59 -15 88 0 29
-7 72 -15 95 -8 23 -15 64 -15 90 0 26 -7 67 -15 90 -8 23 -15 63 -15 89 -1
25 -7 64 -15 86 -8 22 -15 60 -15 85 0 25 -5 61 -11 80 -6 19 -14 62 -17 94
-4 33 -12 61 -18 63 -6 2 -23 -8 -38 -22 -25 -23 -28 -31 -22 -66 4 -22 10
-48 15 -57 5 -9 14 -42 20 -72 7 -30 19 -86 27 -125 8 -38 21 -101 29 -140 7
-38 18 -88 24 -110 6 -22 11 -57 11 -78 0 -21 4 -46 10 -56 5 -10 14 -56 19
-102 5 -46 14 -104 20 -129 6 -25 10 -64 11 -88 0 -24 5 -52 10 -63 6 -10 15
-58 20 -106 12 -114 33 -206 48 -211 33 -11 82 77 82 150 1 29 7 64 15 78 8
14 14 43 15 66 0 22 7 49 15 60 8 10 15 40 15 65 0 25 7 54 15 65 8 10 15 37
15 60 0 22 7 49 15 60 8 10 15 37 15 60 0 22 7 49 15 60 8 10 15 37 15 60 0
22 7 49 15 60 8 10 15 37 15 60 0 22 7 49 15 60 8 10 15 35 15 55 0 19 7 44
15 55 8 10 15 33 15 50 0 16 7 39 15 50 8 10 15 33 15 50 0 16 7 39 15 50 8
10 15 33 15 50 0 16 7 39 15 50 8 10 15 38 15 62 0 34 -3 42 -18 42 -11 0 -27
-9 -37 -20z"/>
<path d="M15550 11505 c-14 -8 -33 -14 -42 -15 -27 0 -80 -33 -113 -69 -83
-94 -95 -110 -95 -123 0 -9 -7 -21 -15 -28 -8 -7 -15 -23 -15 -37 0 -13 -7
-26 -15 -29 -8 -4 -15 -18 -15 -33 0 -14 -7 -39 -15 -55 -8 -15 -15 -48 -15
-73 0 -24 -6 -56 -14 -71 -7 -15 -16 -74 -20 -132 -3 -58 -7 -112 -8 -120 -7
-47 16 -327 28 -345 8 -11 14 -28 14 -39 0 -29 36 -99 65 -126 14 -13 25 -28
25 -34 0 -14 64 -66 109 -88 37 -19 155 -25 166 -9 3 5 18 12 34 16 41 9 161
139 161 175 0 4 8 23 17 42 9 18 22 45 30 60 7 14 13 39 13 55 1 15 7 39 15
53 8 14 14 38 15 53 0 16 5 38 12 50 6 12 15 60 19 107 5 47 13 119 18 161 6
55 5 100 -5 160 -7 46 -14 107 -14 135 0 28 -6 59 -15 70 -8 10 -15 31 -15 45
0 14 -7 34 -15 45 -8 10 -15 29 -15 40 0 12 -7 27 -15 34 -8 7 -15 21 -15 31
0 11 -7 19 -15 19 -9 0 -18 6 -21 14 -3 8 -16 17 -30 20 -13 4 -24 11 -24 16
0 6 -15 10 -33 10 -18 0 -42 7 -53 15 -24 18 -42 18 -74 0z m101 -102 c46 -26
91 -73 115 -124 47 -95 45 -89 75 -264 12 -66 6 -356 -8 -377 -8 -12 -19 -66
-44 -201 -6 -34 -19 -67 -31 -79 -11 -11 -26 -35 -34 -53 -30 -73 -111 -135
-175 -135 -47 0 -151 46 -195 87 -38 35 -74 94 -74 122 0 11 -4 21 -10 21 -5
0 -12 17 -16 38 -4 20 -12 43 -18 51 -7 9 -12 87 -14 219 -3 166 -1 214 12
253 9 26 16 57 16 69 0 12 6 36 14 53 8 18 17 49 21 70 3 20 10 37 15 37 6 0
10 7 10 15 0 44 94 155 131 155 9 0 19 7 23 15 3 8 16 15 30 15 13 0 26 7 30
15 8 21 86 20 127 -2z"/>
<path d="M16890 11492 c-8 -3 -17 -8 -20 -11 -3 -3 -24 -19 -47 -35 -24 -16
-43 -33 -43 -37 0 -5 -13 -28 -30 -51 -16 -22 -30 -53 -30 -67 -1 -14 -7 -37
-15 -51 -20 -35 -20 -208 0 -234 8 -11 15 -32 15 -47 0 -15 7 -29 15 -33 8 -3
15 -12 15 -19 0 -14 9 -26 73 -97 18 -20 43 -51 56 -70 14 -19 30 -39 38 -43
7 -4 13 -16 13 -25 0 -10 6 -26 14 -37 24 -35 38 -193 24 -279 -6 -42 -15 -76
-19 -76 -4 0 -10 -13 -14 -30 -8 -38 -77 -107 -115 -115 -17 -4 -32 -11 -35
-16 -10 -14 -51 -10 -65 6 -7 9 -23 15 -34 13 -17 -2 -21 -10 -20 -41 3 -87
45 -108 133 -65 105 50 201 191 217 318 18 139 4 334 -24 362 -7 7 -12 20 -12
29 0 9 -7 22 -15 29 -8 7 -15 20 -15 29 0 9 -24 37 -53 63 -30 26 -67 67 -83
90 -16 24 -31 45 -34 48 -18 18 -42 123 -37 162 23 161 53 211 143 237 42 13
45 12 75 -14 25 -20 34 -23 40 -13 14 21 11 108 -3 112 -25 8 -93 13 -108 8z"/>
<path d="M1809 11463 c-1 -16 -3 -93 -4 -173 -4 -289 -25 -1017 -31 -1101 -6
-82 -5 -87 15 -94 28 -9 58 2 63 23 2 9 0 58 -5 107 -5 50 -11 252 -13 450 -6
424 3 507 53 488 7 -3 13 -11 13 -18 0 -7 13 -40 29 -72 16 -33 33 -71 36 -86
4 -15 11 -27 16 -27 5 0 9 -8 9 -18 0 -10 7 -27 15 -38 8 -10 15 -25 15 -32 0
-8 16 -46 35 -86 19 -40 35 -79 35 -87 0 -8 7 -23 15 -33 8 -11 15 -28 15 -38
0 -10 5 -18 10 -18 6 0 10 -6 10 -12 1 -7 9 -31 20 -53 11 -22 19 -48 20 -57
0 -10 4 -18 10 -18 5 0 12 -11 16 -25 3 -14 26 -64 50 -111 24 -46 44 -91 44
-98 0 -8 7 -19 15 -26 8 -7 15 -25 15 -40 0 -15 7 -33 15 -40 8 -7 15 -21 15
-31 0 -10 9 -23 19 -29 17 -9 21 -4 36 41 18 53 17 86 -5 229 -14 82 -7 526
10 725 5 61 11 181 13 268 5 156 4 157 -17 157 -15 0 -27 -11 -38 -33 -14 -29
-15 -54 -7 -173 10 -158 12 -678 2 -831 -5 -97 -7 -101 -25 -90 -20 12 -68 98
-68 122 0 7 -7 18 -15 25 -8 7 -15 20 -15 30 0 10 -7 23 -15 30 -8 7 -15 22
-15 34 0 11 -7 30 -15 40 -8 11 -15 30 -15 42 0 12 -7 24 -15 28 -8 3 -15 16
-15 28 0 13 -7 32 -15 42 -8 11 -15 27 -15 37 0 9 -7 22 -15 29 -8 7 -15 23
-15 35 0 12 -7 28 -15 35 -8 7 -15 19 -15 27 0 8 -6 27 -13 41 -14 26 -29 61
-63 140 -9 20 -23 50 -30 65 -8 16 -14 34 -14 42 0 7 -7 18 -15 25 -8 7 -15
22 -15 34 0 12 -7 31 -15 42 -8 10 -15 25 -15 33 0 8 -11 38 -25 68 -28 58
-54 70 -56 26z"/>
<path d="M10387 11472 c-14 -16 -16 -90 -17 -722 -1 -388 -1 -713 -1 -722 1
-10 9 -18 19 -18 10 0 25 8 33 18 28 31 66 60 89 67 50 16 233 228 269 312 6
11 15 24 20 28 6 3 11 17 11 31 0 14 7 27 15 30 8 4 15 18 15 33 0 15 7 36 15
47 8 10 15 34 15 52 0 18 7 46 15 63 22 42 22 406 0 449 -8 16 -15 42 -15 58
0 15 -7 37 -15 48 -8 10 -15 29 -15 40 0 12 -7 27 -15 34 -8 7 -15 18 -15 24
0 20 -65 83 -93 90 -15 3 -27 11 -27 16 0 6 -51 10 -127 10 -99 0 -130 3 -143
15 -15 14 -18 13 -33 -3z m281 -99 c36 -22 102 -93 102 -110 0 -7 4 -13 9 -13
5 0 13 -15 16 -32 4 -18 11 -38 16 -44 10 -12 23 -92 39 -242 7 -63 7 -110 0
-150 -6 -31 -16 -86 -21 -122 -6 -36 -15 -69 -20 -74 -5 -6 -9 -19 -9 -29 0
-11 -10 -41 -21 -66 -12 -25 -29 -62 -38 -81 -9 -19 -22 -41 -28 -48 -7 -7
-13 -18 -13 -23 0 -5 -35 -45 -77 -88 -58 -58 -89 -82 -121 -92 -23 -7 -45 -9
-50 -5 -10 11 -18 576 -12 901 6 346 2 335 122 335 56 0 87 -5 106 -17z"/>
<path d="M16103 11483 c-10 -4 -13 -141 -13 -636 0 -357 -5 -649 -10 -672 -9
-40 3 -115 18 -115 5 0 17 6 28 14 18 14 19 32 20 553 2 656 6 776 23 797 17
20 59 21 97 1 39 -19 94 -79 94 -102 0 -10 7 -27 15 -37 22 -29 22 -328 0
-346 -8 -7 -15 -25 -15 -40 0 -15 -7 -33 -15 -40 -8 -7 -15 -18 -15 -25 0 -20
-125 -125 -150 -125 -17 0 -11 -64 8 -88 9 -13 32 -39 49 -60 18 -20 33 -42
33 -49 0 -6 4 -13 9 -15 8 -3 29 -26 126 -143 22 -26 48 -57 58 -68 9 -11 17
-26 17 -34 0 -7 5 -13 10 -13 6 0 15 -10 20 -22 6 -13 19 -36 30 -53 11 -16
23 -38 28 -48 8 -18 8 -18 24 0 9 10 19 37 23 60 6 38 4 45 -32 85 -51 57 -54
61 -81 96 -12 16 -33 40 -45 53 -13 13 -45 53 -73 89 -27 36 -57 73 -67 83
-29 29 -48 84 -41 115 4 15 28 50 53 78 69 78 101 130 101 167 1 12 7 33 15
47 20 36 20 227 0 266 -8 16 -15 39 -15 51 0 47 -65 131 -129 166 -24 12 -54
17 -109 16 -42 0 -83 -3 -89 -6z"/>
<path d="M11118 11462 c-14 -3 -16 -80 -20 -710 -2 -389 -3 -709 -1 -711 1 -2
9 4 18 13 22 22 240 22 300 1 75 -27 87 -19 100 69 l7 49 -43 -7 c-24 -4 -48
-11 -54 -16 -5 -4 -63 -10 -127 -12 -101 -3 -120 -1 -135 15 -15 15 -18 45
-21 270 -3 248 -3 253 20 297 l23 45 84 -3 c54 -3 93 -9 108 -19 13 -9 25 -14
27 -12 24 32 36 59 36 86 0 42 -25 49 -121 35 -54 -8 -79 -8 -107 2 -36 13
-37 15 -46 77 -16 107 -4 421 17 447 14 18 196 16 221 -3 11 -8 28 -15 38 -15
10 0 18 -4 18 -10 0 -5 8 -10 18 -10 34 0 71 104 40 115 -15 5 -378 11 -400 7z"/>
<path d="M14363 8791 c-18 -18 -33 -41 -33 -51 0 -10 -4 -21 -9 -24 -5 -3 -12
-27 -16 -53 -4 -27 -11 -53 -16 -59 -5 -6 -13 -44 -18 -85 -10 -80 -26 -146
-47 -196 -8 -17 -14 -39 -14 -50 -1 -10 -7 -29 -15 -43 -8 -14 -15 -36 -15
-50 0 -14 -7 -34 -15 -44 -8 -11 -15 -31 -15 -45 -1 -14 -7 -37 -15 -51 -8
-14 -14 -39 -15 -56 0 -16 -7 -39 -15 -50 -8 -10 -15 -32 -15 -47 0 -16 -5
-38 -12 -50 -6 -12 -15 -38 -19 -57 -4 -19 -12 -51 -19 -70 -28 -82 -32 -97
-40 -133 -4 -21 -13 -44 -19 -50 -6 -6 -11 -25 -11 -42 0 -17 -7 -40 -15 -51
-8 -10 -15 -33 -15 -50 0 -16 -7 -39 -15 -50 -8 -10 -15 -33 -15 -50 0 -16 -7
-39 -15 -50 -8 -10 -15 -33 -15 -50 0 -16 -7 -39 -15 -50 -8 -10 -15 -32 -15
-49 0 -16 -7 -41 -15 -55 -8 -14 -14 -46 -15 -71 0 -25 -7 -54 -15 -65 -8 -10
-15 -28 -15 -40 0 -11 -7 -29 -15 -40 -8 -10 -15 -31 -15 -45 0 -14 -7 -34
-15 -45 -8 -10 -15 -33 -15 -49 0 -17 -6 -39 -14 -50 -7 -11 -16 -40 -19 -65
-3 -24 -11 -46 -16 -48 -6 -2 -11 -16 -11 -31 0 -15 -7 -36 -15 -47 -8 -10
-15 -28 -15 -40 0 -11 -7 -29 -15 -40 -8 -10 -15 -28 -15 -40 0 -11 -7 -29
-15 -40 -8 -10 -15 -29 -15 -42 0 -12 -14 -48 -31 -80 -39 -72 -47 -164 -14
-170 11 -2 26 -9 34 -15 7 -6 29 -17 47 -23 30 -10 34 -10 34 5 0 10 7 26 15
37 8 10 15 37 15 59 0 23 7 67 15 98 8 32 15 86 15 120 1 35 7 73 15 87 8 14
14 43 15 66 0 22 7 49 15 60 8 10 15 37 15 59 0 22 7 53 15 69 8 15 15 44 15
63 0 19 6 49 14 66 8 18 16 53 19 79 6 61 66 148 103 148 13 0 24 4 24 10 0 5
12 13 28 16 15 4 32 10 37 14 6 4 74 10 152 13 78 3 150 10 162 16 26 15 168
14 177 0 4 -7 23 -9 53 -5 42 6 50 3 70 -19 21 -25 27 -43 52 -165 6 -30 15
-63 21 -73 5 -10 12 -42 15 -70 3 -29 9 -57 14 -63 4 -5 13 -41 18 -80 5 -38
14 -87 20 -109 6 -22 11 -62 11 -88 0 -27 5 -58 11 -70 7 -13 12 -66 11 -135
-1 -62 2 -112 6 -110 4 2 21 10 37 18 17 8 45 30 63 48 31 31 33 39 29 81 -6
69 -27 162 -43 193 -8 14 -14 42 -14 61 0 19 -7 48 -15 63 -8 16 -15 47 -15
69 -1 22 -7 51 -15 65 -8 14 -15 43 -15 65 0 22 -7 51 -15 65 -8 14 -15 43
-15 65 0 22 -7 51 -15 65 -8 14 -15 43 -15 65 0 22 -7 51 -15 65 -8 14 -14 42
-15 63 0 21 -5 48 -12 60 -7 12 -15 45 -19 72 -4 28 -12 69 -18 93 -28 110
-33 130 -41 178 -4 28 -13 61 -19 72 -6 11 -11 35 -11 52 0 17 -7 47 -15 67
-8 19 -15 49 -15 65 0 16 -7 45 -15 65 -8 19 -15 48 -15 63 0 15 -6 50 -14 76
-16 56 -33 133 -47 219 -5 33 -14 73 -19 90 -10 34 -26 120 -40 215 -6 36 -15
81 -21 100 -6 19 -13 82 -17 139 l-7 105 -32 -33z m-24 -420 c10 -10 22 -36
26 -57 4 -21 10 -43 13 -49 4 -5 13 -37 20 -70 7 -33 19 -89 27 -125 7 -36 19
-92 25 -125 6 -33 15 -69 20 -80 5 -11 14 -49 20 -85 6 -36 17 -96 23 -135 7
-38 15 -75 19 -80 3 -6 10 -40 14 -75 3 -36 10 -69 14 -75 15 -20 30 -173 19
-203 -17 -49 -87 -72 -220 -72 -75 0 -126 -5 -160 -16 -48 -16 -56 -16 -129 1
-64 15 -82 23 -100 47 -18 25 -21 38 -15 74 3 24 10 46 16 49 5 4 9 23 9 43 0
20 7 50 15 66 8 15 15 38 15 50 0 11 7 34 15 50 8 15 15 40 15 55 0 14 7 39
15 55 8 15 15 37 15 48 0 11 6 34 14 51 14 34 31 95 47 167 5 24 14 49 19 54
6 6 10 21 10 35 0 15 6 38 14 52 7 14 16 47 20 72 4 26 11 49 15 52 5 2 12 25
15 50 4 24 11 47 17 50 5 4 9 15 9 25 0 31 42 120 57 120 7 0 21 -8 32 -19z"/>
<path d="M12750 8800 c0 -5 -11 -12 -24 -16 -13 -3 -32 -20 -41 -38 -19 -35
-17 -108 4 -221 13 -66 13 -1945 0 -2045 -5 -41 -12 -157 -15 -258 l-6 -183
93 2 c52 1 101 5 109 9 8 4 31 14 50 23 19 9 52 19 73 23 20 3 40 10 43 15 3
5 13 9 23 9 10 0 32 14 49 30 18 17 36 30 42 30 5 0 16 14 25 30 9 17 21 30
29 30 7 0 18 10 25 23 6 12 17 31 24 42 54 91 67 116 67 132 0 10 7 27 15 37
8 11 15 27 15 37 0 9 7 30 15 45 8 16 15 45 15 64 0 19 7 53 15 75 18 50 21
401 4 455 -6 19 -15 55 -19 80 -12 70 -37 129 -85 200 -48 71 -137 166 -165
175 -36 11 -40 46 -11 100 14 28 29 52 32 55 4 3 10 16 14 30 4 14 11 27 14
30 11 9 51 115 51 136 0 11 4 24 10 30 5 5 14 39 20 74 5 36 14 84 19 108 11
56 -14 304 -37 348 -5 11 -20 41 -33 69 -27 55 -69 99 -114 119 -57 25 -120
44 -170 51 -59 8 -143 34 -151 46 -7 12 -24 11 -24 -1z m165 -130 c3 -5 14
-10 24 -10 10 0 24 -7 31 -15 7 -8 21 -15 32 -15 10 0 21 -7 24 -15 4 -8 11
-15 18 -15 6 0 18 -8 26 -18 20 -24 60 -106 60 -124 0 -8 4 -18 9 -23 17 -19
34 -131 38 -253 4 -127 -8 -211 -43 -292 -56 -130 -102 -200 -131 -200 -12 0
-33 -10 -47 -23 -44 -41 -73 -51 -114 -41 l-37 9 -9 155 c-12 207 -12 689 0
770 12 82 37 119 81 120 17 0 35 -4 38 -10z m-7 -1176 c6 -11 11 -13 16 -5 22
35 145 -6 217 -72 63 -58 139 -177 139 -219 0 -8 4 -18 9 -23 30 -30 52 -353
32 -450 -5 -27 -15 -72 -20 -100 -16 -84 -32 -140 -42 -150 -5 -5 -9 -16 -9
-24 0 -9 -17 -49 -37 -90 -40 -79 -149 -201 -181 -201 -9 0 -29 -7 -44 -14
-15 -8 -36 -16 -45 -17 -44 -6 -143 33 -143 56 0 7 -5 15 -12 17 -25 9 -16
1097 10 1232 5 27 17 55 28 63 25 18 71 16 82 -3z"/>
<path d="M15291 8711 c-23 -32 -28 -100 -9 -119 15 -15 32 -235 30 -397 -14
-1648 -19 -1952 -30 -1978 -7 -16 -12 -61 -12 -101 l0 -73 46 -1 c25 -1 54 -4
64 -7 12 -4 22 1 29 12 8 16 32 19 208 25 109 3 217 9 240 13 36 6 42 4 48
-14 3 -12 18 -24 33 -27 15 -4 36 -13 46 -20 18 -12 22 -10 38 24 21 45 24
159 4 185 -17 22 -102 23 -130 2 -11 -8 -26 -15 -34 -15 -7 0 -21 -7 -29 -16
-14 -13 -39 -15 -158 -12 -86 2 -147 7 -156 14 -8 7 -33 15 -56 19 -24 4 -46
12 -50 18 -22 35 -27 123 -24 367 5 341 7 1017 3 1095 -1 33 1 221 5 417 6
263 11 360 21 370 14 14 17 178 3 178 -5 0 -13 9 -16 20 -7 21 -53 50 -79 50
-8 0 -24 -13 -35 -29z"/>
<path d="M16292 8717 c-17 -18 -22 -36 -22 -74 0 -29 5 -53 11 -55 13 -4 32
-246 31 -388 0 -52 -5 -511 -9 -1020 -6 -697 -12 -930 -21 -947 -7 -12 -12
-58 -12 -106 l0 -84 51 -2 c28 0 55 -3 60 -7 6 -3 16 2 24 12 12 17 35 20 212
26 109 3 214 9 234 13 31 6 38 4 52 -19 10 -14 25 -26 35 -26 10 0 27 -7 39
-15 19 -14 22 -13 37 10 12 17 17 49 18 98 1 112 -2 117 -73 117 -32 0 -59 -4
-59 -10 0 -5 -12 -13 -27 -16 -16 -4 -31 -12 -35 -18 -10 -15 -300 -15 -319 0
-8 7 -33 15 -56 19 -51 8 -59 17 -67 75 -19 132 -21 203 -12 390 9 188 14 843
8 1020 -2 41 1 231 5 422 6 255 11 350 21 360 7 7 12 40 12 84 0 82 -22 132
-66 152 -36 17 -48 15 -72 -11z"/>
<path d="M5235 8702 c-16 -9 -32 -19 -35 -22 -3 -3 -23 -14 -45 -25 -22 -11
-44 -25 -48 -32 -4 -7 -17 -13 -28 -13 -11 0 -22 -7 -25 -15 -4 -8 -12 -15
-20 -15 -8 0 -14 -5 -14 -10 0 -6 -10 -15 -22 -20 -34 -15 -62 -33 -71 -47 -4
-7 -17 -13 -28 -13 -11 0 -22 -7 -25 -15 -4 -8 -12 -15 -20 -15 -8 0 -14 -4
-14 -9 0 -5 -13 -12 -30 -16 -16 -4 -30 -10 -30 -15 0 -5 -13 -11 -30 -15 -16
-4 -32 -11 -35 -16 -4 -5 -16 -9 -29 -9 -12 0 -31 -7 -42 -15 -10 -8 -31 -15
-46 -15 -18 0 -28 -5 -28 -15 0 -10 -10 -15 -29 -15 -16 0 -31 -6 -35 -15 -3
-8 -17 -15 -31 -15 -14 0 -25 -5 -25 -10 0 -6 -10 -15 -22 -20 -23 -10 -49
-25 -76 -45 -25 -18 -107 -101 -119 -121 -7 -10 -22 -38 -33 -61 -26 -50 -73
-93 -103 -93 -48 0 -67 11 -67 40 0 15 -7 33 -15 40 -8 7 -15 27 -15 45 0 18
-7 38 -15 45 -8 7 -15 25 -15 40 0 15 -7 33 -15 40 -8 7 -15 25 -15 41 0 19
-5 29 -15 29 -9 0 -15 9 -15 25 0 14 -7 28 -15 31 -8 4 -15 12 -15 19 0 7 -7
15 -15 19 -8 3 -15 15 -15 26 0 11 -7 23 -15 26 -8 4 -15 13 -15 21 0 12 -3
12 -22 -1 -12 -9 -40 -16 -61 -16 -37 0 -39 2 -35 25 4 19 1 25 -12 25 -23 0
-34 28 -19 46 24 30 86 10 77 -24 -4 -15 0 -21 18 -25 27 -5 34 17 9 27 -8 3
-15 12 -15 21 0 8 -7 15 -15 15 -8 0 -15 7 -15 15 0 8 -7 15 -15 15 -8 0 -15
7 -15 15 0 8 -7 15 -15 15 -8 0 -15 7 -15 15 0 8 -8 15 -19 15 -10 0 -24 7
-31 15 -7 8 -17 15 -22 15 -5 0 -21 11 -36 25 -22 21 -37 25 -84 25 -32 0 -58
-4 -58 -10 0 -5 -7 -10 -15 -10 -13 0 -15 -12 -13 -67 3 -63 5 -69 31 -81 18
-9 27 -21 27 -38 0 -15 6 -24 15 -24 8 0 15 -7 15 -15 0 -8 7 -15 15 -15 8 0
15 -7 15 -15 0 -8 5 -15 10 -15 13 0 50 -37 50 -50 0 -5 7 -10 15 -10 8 0 15
-7 15 -15 0 -8 4 -15 10 -15 5 0 12 -11 16 -25 3 -14 12 -25 20 -25 8 0 14 -7
14 -15 0 -7 6 -18 13 -22 14 -9 35 -41 43 -65 4 -10 13 -18 20 -18 8 0 14 -7
14 -15 0 -18 26 -20 33 -2 3 6 4 -4 3 -23 -1 -28 3 -34 16 -32 14 2 16 -3 11
-31 -3 -23 0 -37 11 -46 9 -7 16 -28 16 -46 0 -18 6 -38 14 -44 7 -6 16 -38
19 -71 3 -34 11 -68 18 -76 10 -13 12 -122 11 -527 -2 -316 -6 -515 -12 -521
-12 -12 -13 -219 -1 -232 5 -5 12 -146 15 -314 4 -172 11 -309 16 -314 6 -6
10 -40 10 -77 0 -81 7 -104 26 -88 23 19 34 0 34 -56 0 -63 7 -85 26 -85 9 0
14 12 14 36 0 38 15 74 30 74 5 0 15 -20 21 -45 12 -49 27 -57 47 -25 9 15 23
21 50 21 59 -1 132 10 132 19 0 5 10 12 22 16 26 8 118 102 118 121 0 7 7 16
15 19 8 4 15 17 15 30 0 14 7 27 15 30 8 4 15 16 15 28 0 12 7 31 15 42 8 10
15 29 15 42 0 12 7 25 15 28 8 4 15 16 15 29 0 12 6 28 14 34 8 7 17 27 20 46
4 19 11 35 16 35 4 0 11 14 15 30 4 17 10 30 15 30 4 0 11 12 15 27 3 15 10
30 13 33 10 7 52 68 52 75 0 12 125 125 139 125 5 0 11 7 15 15 3 8 17 15 31
15 16 0 25 6 25 15 0 10 10 15 29 15 16 0 31 6 35 15 4 10 20 15 53 15 26 0
57 7 67 15 15 11 48 15 121 15 73 0 106 -4 121 -15 11 -8 41 -14 72 -15 37 0
54 -4 58 -15 4 -9 19 -15 39 -15 20 0 35 -6 39 -15 3 -8 17 -15 31 -15 14 0
25 -4 25 -8 0 -5 18 -16 41 -26 22 -10 43 -24 46 -32 3 -8 11 -14 18 -14 14 0
105 -96 105 -110 0 -6 7 -10 15 -10 8 0 15 -7 15 -15 0 -8 5 -15 10 -15 6 0
15 -10 20 -22 15 -34 33 -62 48 -71 6 -4 12 -17 12 -28 0 -11 7 -22 15 -25 8
-4 15 -16 15 -29 0 -12 7 -28 15 -35 8 -7 15 -27 15 -45 0 -20 6 -35 15 -39
11 -4 15 -21 15 -66 0 -41 5 -66 15 -76 22 -23 22 -485 0 -528 -10 -19 -15
-59 -15 -126 0 -74 -4 -102 -15 -114 -11 -10 -15 -36 -15 -86 0 -54 -4 -72
-15 -76 -11 -5 -15 -21 -15 -59 0 -34 -5 -59 -15 -69 -9 -8 -15 -33 -15 -59 0
-31 -5 -47 -15 -51 -10 -3 -15 -19 -15 -44 0 -23 -6 -45 -15 -52 -8 -7 -15
-28 -15 -47 0 -21 -6 -36 -15 -39 -9 -4 -15 -19 -15 -40 0 -24 -5 -34 -15 -34
-10 0 -15 -10 -15 -28 0 -16 -7 -37 -15 -48 -8 -10 -15 -26 -15 -35 0 -9 -7
-22 -15 -29 -8 -7 -15 -23 -15 -37 0 -13 -7 -26 -15 -29 -8 -4 -15 -15 -15
-25 0 -11 -7 -22 -15 -25 -8 -4 -15 -17 -15 -30 0 -14 -7 -27 -15 -30 -8 -4
-15 -14 -15 -24 0 -10 -7 -23 -15 -30 -8 -7 -15 -19 -15 -27 0 -7 -7 -16 -15
-19 -8 -4 -15 -12 -15 -20 0 -8 -8 -23 -17 -33 -29 -32 -39 -45 -46 -63 -3
-10 -11 -18 -17 -18 -5 0 -10 -4 -10 -10 0 -5 -8 -18 -17 -29 -10 -10 -26 -29
-36 -42 -42 -57 -292 -319 -303 -319 -3 0 -17 -13 -32 -28 -43 -45 -138 -122
-151 -122 -6 0 -11 -7 -11 -15 0 -8 -5 -15 -10 -15 -6 0 -21 -11 -34 -25 -13
-14 -28 -25 -35 -25 -6 0 -11 -4 -11 -9 0 -10 -38 -34 -72 -47 -10 -3 -18 -13
-18 -20 0 -8 -7 -14 -15 -14 -8 0 -15 -5 -15 -11 0 -5 -13 -15 -30 -20 -16 -6
-30 -15 -30 -20 0 -5 -7 -9 -15 -9 -8 0 -15 -4 -15 -9 0 -5 -10 -13 -22 -17
-12 -3 -39 -19 -61 -35 -22 -16 -46 -29 -54 -29 -7 0 -13 -4 -13 -10 0 -5 -6
-10 -14 -10 -7 0 -19 -7 -26 -15 -7 -8 -23 -15 -35 -15 -13 0 -25 -7 -29 -15
-3 -8 -15 -15 -26 -15 -11 0 -23 -7 -26 -15 -4 -9 -19 -15 -35 -15 -16 0 -29
-4 -29 -10 0 -5 -12 -13 -27 -16 -16 -4 -37 -13 -48 -20 -11 -8 -29 -14 -40
-14 -11 0 -29 -7 -39 -15 -11 -8 -27 -15 -37 -15 -9 0 -30 -7 -45 -15 -16 -8
-41 -15 -56 -15 -15 0 -29 -4 -32 -9 -3 -4 -28 -11 -55 -15 -28 -4 -53 -11
-56 -16 -3 -6 -35 -10 -70 -10 -47 0 -64 -4 -69 -15 -8 -22 -377 -22 -400 0
-10 10 -35 15 -75 15 -33 0 -63 4 -66 10 -3 5 -28 12 -55 16 -28 4 -50 10 -50
15 0 5 -10 9 -22 9 -13 0 -35 6 -49 14 -14 7 -37 16 -52 20 -15 3 -27 11 -27
16 0 6 -7 10 -15 10 -17 0 -93 38 -101 51 -3 5 -14 9 -25 9 -10 0 -19 7 -19
15 0 8 -8 15 -19 15 -10 0 -24 7 -31 15 -7 8 -19 15 -26 15 -8 0 -14 6 -14 13
0 6 -18 20 -39 31 -22 10 -58 36 -81 57 -23 22 -46 39 -51 39 -5 0 -9 7 -9 15
0 8 -7 15 -15 15 -8 0 -15 7 -15 15 0 8 -7 15 -15 15 -8 0 -15 7 -15 15 0 8
-7 15 -15 15 -8 0 -15 7 -15 15 0 8 -5 15 -10 15 -6 0 -15 11 -20 25 -5 14
-14 25 -20 25 -5 0 -10 7 -10 15 0 9 -7 18 -15 21 -8 4 -15 14 -15 25 0 10 -6
22 -13 26 -14 9 -32 37 -47 71 -5 12 -14 22 -20 22 -5 0 -10 5 -10 12 0 6 -6
19 -14 27 -18 20 -86 152 -86 167 0 7 -7 25 -15 40 -8 16 -15 52 -15 81 0 28
-4 55 -10 58 -12 8 -13 132 -1 139 5 3 11 33 13 67 2 33 9 64 15 67 5 4 13 24
17 45 4 20 11 37 16 37 5 0 12 10 16 22 3 12 10 26 15 32 41 49 49 60 49 67 0
5 13 22 30 39 16 17 30 35 30 39 0 17 100 111 125 117 14 3 25 10 25 15 0 5
12 14 26 19 15 6 39 19 54 30 16 11 37 20 48 20 11 0 25 7 32 15 7 8 26 15 42
15 16 0 31 6 34 15 4 9 19 15 36 15 16 0 36 7 44 15 9 8 29 15 45 15 17 0 37
7 45 15 9 8 33 15 55 15 23 0 47 7 55 15 10 10 35 15 69 15 31 0 55 5 57 12 2
6 31 13 64 15 32 3 73 11 91 19 17 8 49 14 72 14 23 0 41 4 41 9 0 4 23 11 52
14 28 4 56 11 62 17 5 5 27 10 48 10 25 0 41 5 44 15 4 9 19 15 39 15 18 0 38
7 45 15 7 8 25 15 41 15 19 0 29 5 29 15 0 10 10 15 31 15 17 0 37 7 46 15 14
14 14 18 -1 34 -12 14 -16 39 -16 114 l0 97 -46 0 c-27 0 -51 -6 -60 -15 -9
-8 -24 -15 -34 -15 -10 0 -31 -7 -46 -15 -16 -8 -37 -15 -46 -15 -10 0 -18 -4
-18 -10 0 -5 -12 -10 -27 -10 -16 0 -37 -7 -47 -15 -11 -8 -32 -15 -47 -15
-15 0 -29 -7 -33 -15 -3 -9 -18 -15 -40 -15 -21 0 -36 -6 -40 -15 -3 -9 -18
-15 -35 -15 -16 0 -31 -6 -35 -15 -3 -8 -17 -15 -31 -15 -15 0 -33 -7 -41 -15
-9 -8 -26 -15 -38 -15 -13 0 -29 -7 -36 -15 -7 -8 -22 -15 -34 -15 -11 0 -30
-7 -40 -15 -11 -8 -28 -15 -38 -15 -10 0 -18 -4 -18 -10 0 -5 -11 -10 -25 -10
-14 0 -28 -7 -31 -15 -4 -9 -19 -15 -35 -15 -19 0 -29 -5 -29 -15 0 -10 -10
-15 -30 -15 -20 0 -30 -5 -30 -15 0 -10 -10 -15 -30 -15 -20 0 -30 -5 -30 -15
0 -10 -10 -15 -29 -15 -16 0 -31 -6 -35 -15 -3 -8 -16 -15 -30 -15 -13 0 -26
-7 -30 -15 -3 -8 -14 -15 -24 -15 -11 0 -25 -7 -32 -15 -7 -8 -19 -15 -26 -15
-18 0 -57 -22 -67 -37 -4 -7 -19 -13 -32 -13 -16 0 -25 -6 -25 -15 0 -8 -6
-15 -14 -15 -8 0 -16 -7 -20 -15 -3 -8 -10 -15 -16 -15 -11 0 -24 -9 -61 -42
-10 -10 -24 -18 -29 -18 -5 0 -10 -7 -10 -15 0 -8 -7 -15 -15 -15 -8 0 -15 -6
-15 -13 0 -7 -14 -27 -30 -45 -16 -18 -30 -37 -30 -43 0 -5 -7 -9 -15 -9 -9 0
-15 -9 -15 -25 0 -14 -7 -28 -15 -31 -8 -4 -15 -15 -15 -25 0 -11 -7 -22 -15
-25 -8 -4 -15 -17 -15 -30 0 -14 -7 -27 -15 -30 -9 -4 -15 -19 -15 -39 0 -18
-7 -38 -15 -45 -10 -8 -15 -31 -15 -66 0 -33 -5 -58 -15 -68 -22 -22 -22 -360
0 -382 9 -9 15 -34 15 -59 0 -29 5 -45 15 -49 8 -3 15 -17 15 -31 0 -14 5 -25
10 -25 6 0 15 -11 20 -25 5 -14 14 -25 20 -25 5 0 10 -9 10 -19 0 -10 7 -21
15 -25 8 -3 15 -16 15 -30 0 -13 7 -26 15 -30 9 -3 15 -18 15 -36 0 -18 6 -33
15 -36 9 -4 15 -19 15 -35 0 -19 5 -29 15 -29 9 0 15 -9 15 -25 0 -16 6 -25
15 -25 8 0 15 -7 15 -15 0 -7 6 -18 12 -22 15 -9 36 -41 44 -65 4 -10 13 -18
20 -18 8 0 14 -7 14 -15 0 -8 7 -15 15 -15 8 0 15 -4 15 -8 0 -4 27 -25 60
-46 33 -21 60 -42 60 -47 0 -5 6 -9 14 -9 8 0 16 -7 20 -15 3 -8 15 -15 26
-15 11 0 23 -7 26 -15 4 -8 12 -15 20 -15 8 0 14 -7 14 -15 0 -8 9 -15 19 -15
11 0 26 -6 33 -13 7 -6 31 -21 53 -32 22 -11 42 -23 45 -26 3 -4 24 -10 48
-14 23 -4 42 -11 42 -16 0 -5 15 -9 34 -9 19 0 41 -7 50 -15 8 -8 28 -15 45
-15 16 0 36 -7 45 -15 8 -9 33 -15 59 -15 27 0 49 -6 57 -15 8 -10 31 -15 70
-15 39 0 62 -5 70 -15 9 -11 33 -15 84 -15 48 0 79 -5 92 -15 28 -21 207 -21
224 0 10 11 35 15 110 15 75 0 100 4 110 15 9 11 34 15 95 15 58 0 85 4 87 13
3 8 36 13 104 16 63 2 106 8 119 17 10 8 37 14 58 14 21 0 45 7 53 15 9 8 26
15 40 15 13 0 32 4 42 10 9 5 35 16 57 25 22 9 52 23 67 31 14 8 33 14 41 14
8 0 17 7 21 15 3 8 15 15 26 15 11 0 23 7 26 15 4 8 12 15 20 15 8 0 14 4 14
9 0 5 14 14 30 20 16 5 30 15 30 20 0 6 5 11 10 11 6 0 18 8 29 18 45 42 83
71 111 84 17 7 30 19 30 25 0 7 7 13 15 13 8 0 15 7 15 15 0 8 4 15 10 15 5 0
22 12 38 27 16 16 39 35 52 43 13 8 32 23 42 33 10 9 21 17 24 17 4 0 17 11
30 25 13 14 28 25 34 25 5 0 10 7 10 15 0 8 7 15 15 15 8 0 15 5 15 10 0 13
37 50 50 50 6 0 10 5 10 10 0 6 8 18 18 29 38 41 72 84 72 92 0 5 7 9 15 9 8
0 15 5 15 11 0 14 54 85 92 121 15 15 28 31 28 35 0 5 8 16 18 25 27 26 42 46
42 58 0 5 6 10 14 10 8 0 17 11 20 25 4 14 11 25 16 25 6 0 10 7 10 15 0 9 6
18 14 21 8 3 17 16 20 30 4 13 11 24 16 24 6 0 10 7 10 15 0 9 6 18 14 21 8 3
17 16 20 30 4 13 11 24 16 24 6 0 10 6 10 13 0 7 12 30 27 52 28 42 66 108 90
160 8 17 27 56 44 88 16 32 29 65 29 73 0 8 5 14 10 14 6 0 10 6 10 13 1 6 9
30 20 52 11 22 19 48 20 58 0 10 7 25 15 33 8 9 15 28 15 44 0 16 5 30 10 32
6 2 13 21 17 43 3 22 12 46 20 53 7 7 13 32 13 55 0 23 7 51 15 61 10 13 15
43 15 87 0 47 4 70 15 79 11 9 15 33 15 86 0 52 4 75 14 81 10 6 15 37 18 117
2 76 7 111 16 114 19 6 16 221 -3 246 -11 14 -15 46 -15 112 0 69 -4 95 -15
104 -10 8 -15 31 -15 65 0 38 -4 55 -15 59 -9 3 -15 19 -15 41 0 22 -6 38 -15
41 -8 4 -15 18 -15 34 0 15 -7 33 -15 40 -8 7 -15 20 -15 29 0 9 -5 22 -11 28
-13 13 -33 47 -48 81 -6 12 -15 22 -21 22 -5 0 -10 7 -10 15 0 9 -7 18 -15 21
-8 4 -15 12 -15 20 0 7 -12 26 -28 42 -15 15 -45 50 -67 77 -53 65 -73 85 -85
85 -5 0 -10 7 -10 15 0 8 -6 15 -14 15 -8 0 -16 7 -20 15 -3 8 -11 15 -18 15
-7 0 -24 10 -38 23 -14 13 -33 26 -42 30 -10 3 -18 11 -18 17 0 5 -8 10 -19
10 -10 0 -24 7 -31 15 -7 8 -23 15 -37 15 -13 0 -26 7 -29 15 -4 8 -16 15 -29
15 -12 0 -28 7 -35 15 -7 9 -29 15 -51 15 -20 0 -44 7 -53 15 -12 12 -50 15
-209 15 -161 0 -197 -3 -207 -15 -7 -9 -29 -15 -55 -15 -26 0 -48 -6 -55 -15
-7 -8 -25 -15 -41 -15 -16 0 -29 -5 -29 -11 0 -5 -13 -15 -30 -20 -16 -6 -30
-15 -30 -20 0 -5 -5 -9 -11 -9 -7 0 -22 -11 -35 -25 -13 -14 -28 -25 -34 -25
-5 0 -10 -7 -10 -15 0 -8 -4 -15 -10 -15 -13 0 -50 -37 -50 -50 0 -5 -7 -10
-15 -10 -9 0 -15 -9 -15 -25 0 -14 -7 -28 -15 -31 -8 -4 -15 -14 -15 -24 0
-10 -7 -23 -15 -30 -8 -7 -15 -21 -15 -32 0 -10 -7 -21 -15 -24 -8 -4 -15 -18
-15 -34 0 -16 -7 -30 -15 -34 -8 -3 -15 -16 -15 -29 0 -14 -7 -30 -15 -37 -8
-7 -15 -27 -15 -46 0 -18 -7 -39 -15 -48 -8 -8 -15 -26 -15 -39 0 -14 -7 -27
-15 -31 -8 -3 -15 -16 -15 -30 0 -14 -7 -31 -15 -40 -8 -8 -15 -18 -15 -22 0
-18 -69 -71 -112 -85 l-48 -16 -25 33 c-14 18 -25 39 -25 47 0 8 -7 20 -15 27
-8 7 -15 23 -15 37 0 13 -7 31 -15 39 -12 12 -15 42 -15 132 -1 87 -4 122 -15
136 -12 16 -15 65 -15 260 -1 196 -3 245 -15 260 -12 16 -15 54 -15 177 l0
156 -26 -5 c-23 -4 -25 -2 -22 24 2 21 9 30 26 32 13 2 22 10 22 21 0 9 7 26
15 37 8 11 14 42 15 76 0 37 5 62 15 72 8 8 15 26 15 39 0 14 7 27 15 31 8 3
15 16 15 28 0 32 53 88 83 88 14 0 27 7 31 15 3 8 10 15 16 15 17 0 80 65 80
83 0 9 6 20 14 24 8 5 15 36 19 87 3 43 10 83 16 89 6 6 11 45 11 87 0 52 5
82 15 96 8 10 15 27 15 36 0 28 105 128 133 128 14 0 27 7 31 15 3 9 18 15 39
15 19 0 40 7 47 15 7 8 23 15 36 15 13 0 24 4 24 9 0 5 12 13 28 19 15 5 44
26 65 46 21 20 43 36 48 36 5 0 9 7 9 15 0 8 4 15 9 15 6 0 25 14 43 30 18 17
40 30 49 30 9 0 20 7 23 16 4 11 17 14 52 12 45 -3 47 -4 59 -43 6 -22 8 -51
4 -65 -4 -14 -7 -46 -8 -71 -1 -28 -7 -51 -16 -59 -8 -7 -15 -25 -15 -40 0
-15 -7 -33 -15 -40 -8 -7 -15 -25 -15 -40 0 -16 -7 -30 -15 -34 -8 -3 -15 -16
-15 -30 0 -13 -7 -26 -15 -30 -8 -3 -15 -17 -15 -31 0 -16 -6 -25 -15 -25 -9
0 -15 -9 -15 -25 0 -14 -7 -28 -15 -31 -8 -4 -15 -12 -15 -20 0 -8 -7 -14 -15
-14 -9 0 -15 -9 -15 -24 0 -13 -7 -26 -15 -30 -8 -3 -15 -12 -15 -21 0 -8 -7
-15 -15 -15 -8 0 -15 -5 -15 -11 0 -16 -120 -129 -137 -129 -7 0 -13 -7 -13
-15 0 -8 -7 -15 -15 -15 -8 0 -15 -7 -15 -15 0 -8 -4 -15 -9 -15 -5 0 -21 -10
-36 -22 -64 -55 -130 -115 -149 -137 -12 -13 -33 -37 -48 -53 -24 -24 -26 -30
-12 -35 10 -4 20 1 26 10 5 10 16 17 24 17 19 0 9 -41 -12 -53 -8 -4 -14 -17
-14 -27 0 -24 34 -27 56 -5 9 8 26 15 40 15 13 0 24 4 24 9 0 5 8 12 18 15 10
4 51 38 91 76 39 39 74 70 77 70 11 0 144 148 144 161 0 5 7 9 15 9 8 0 15 7
15 15 0 8 4 15 10 15 5 0 12 11 16 24 3 14 12 27 20 30 8 3 14 12 14 21 0 8 7
15 15 15 8 0 15 9 15 20 0 11 7 23 15 26 8 4 15 13 15 20 0 8 7 17 15 20 8 4
15 17 15 30 0 15 6 24 15 24 9 0 15 9 15 25 0 14 7 28 15 31 8 4 15 17 15 30
0 15 6 24 15 24 10 0 15 10 15 30 0 20 5 30 15 30 10 0 15 10 15 30 0 20 5 30
15 30 11 0 15 11 15 35 0 22 6 38 15 41 10 4 15 20 15 49 0 26 6 47 15 55 9 8
15 30 15 60 0 33 5 50 15 54 11 4 15 20 15 54 0 32 5 54 15 62 9 8 15 29 15
56 0 29 5 46 16 52 11 6 14 20 12 48 -3 35 -6 39 -33 41 -16 1 -43 -6 -60 -15z
m-1581 -143 c15 -13 -14 -39 -44 -39 -33 0 -45 23 -24 45 16 15 48 13 68 -6z
m145 -173 c16 -19 -29 -69 -53 -60 -16 6 -23 54 -9 67 11 12 50 7 62 -7z m31
-217 c0 -5 -7 -9 -15 -9 -15 0 -20 12 -9 23 8 8 24 -1 24 -14z m60 -108 c12
-23 3 -54 -14 -48 -14 5 -21 67 -7 67 6 0 15 -9 21 -19z m30 -86 c0 -11 -35
-45 -47 -45 -14 0 -18 32 -6 43 7 8 53 9 53 2z m93 -41 c-3 -8 -9 -14 -14 -14
-14 0 -22 27 -14 48 6 16 7 16 20 -1 8 -11 11 -25 8 -33z m-8 -44 c3 -5 -1
-10 -10 -10 -9 0 -13 5 -10 10 3 6 8 10 10 10 2 0 7 -4 10 -10z m-75 -59 c0
-14 -18 -23 -30 -16 -6 4 -8 11 -5 16 8 12 35 12 35 0z m50 -60 c0 -10 -7 -21
-15 -25 -8 -3 -15 -12 -15 -21 0 -8 -4 -15 -9 -15 -13 0 -21 28 -14 48 13 34
53 45 53 13z m67 -277 c7 -18 -17 -38 -31 -24 -11 11 -1 40 14 40 6 0 13 -7
17 -16z m-8 -76 c12 -31 -4 -46 -29 -30 -18 11 -20 10 -20 -21 0 -18 5 -38 12
-45 9 -9 7 -16 -7 -32 -26 -28 -42 -25 -49 11 -10 53 -7 78 14 99 11 11 20 25
20 30 0 6 11 10 25 10 17 0 28 -7 34 -22z"/>
<path d="M4780 8105 c0 -8 -7 -15 -15 -15 -8 0 -15 -6 -15 -14 0 -7 -8 -17
-17 -20 -35 -13 -73 -37 -73 -47 0 -5 -4 -9 -9 -9 -17 0 -111 -97 -111 -114 0
-9 -7 -19 -15 -22 -8 -4 -15 -18 -15 -32 0 -14 -6 -33 -14 -41 -8 -10 -15 -46
-18 -94 -3 -64 -1 -77 11 -75 9 2 18 18 22 36 4 19 12 39 18 45 6 6 11 21 11
34 0 13 7 26 15 29 8 4 15 12 15 20 0 23 74 123 95 128 44 11 125 117 125 163
0 11 5 24 12 31 9 9 8 12 -5 12 -9 0 -17 -7 -17 -15z"/>
<path d="M7655 5590 c0 -1350 1 -1903 2 -1227 2 675 2 1779 0 2455 -1 675 -2
122 -2 -1228z"/>
<path d="M6570 7473 c-19 -8 -42 -19 -50 -24 -8 -4 -35 -19 -60 -31 -25 -13
-49 -26 -55 -30 -86 -64 -120 -122 -112 -196 5 -52 23 -121 43 -167 7 -16 15
-37 18 -45 4 -8 15 -28 26 -45 11 -16 23 -37 27 -45 19 -37 70 -99 99 -119 29
-20 39 -21 140 -15 154 9 204 25 301 98 46 33 83 64 83 69 0 4 5 7 11 7 16 0
58 47 70 77 15 41 11 181 -8 241 -14 42 -32 70 -76 114 -31 32 -67 63 -80 68
-12 6 -29 14 -37 19 -57 33 -95 41 -198 40 -74 0 -118 -5 -142 -16z"/>
<path d="M2500 7411 c-7 -13 -7 -22 0 -26 5 -3 10 -28 10 -55 0 -33 5 -50 15
-54 9 -3 15 -18 15 -35 0 -16 7 -36 15 -45 8 -8 15 -26 15 -39 0 -14 7 -27 15
-31 8 -3 15 -12 15 -20 0 -12 22 -57 88 -182 7 -13 17 -24 23 -24 5 0 9 -6 9
-14 0 -8 6 -21 13 -28 33 -36 87 -108 87 -117 0 -6 5 -11 10 -11 6 0 19 -8 29
-17 33 -30 50 -43 56 -43 6 0 20 -11 50 -37 7 -7 20 -13 28 -13 8 0 20 -7 27
-15 7 -8 23 -15 37 -15 13 0 26 -7 29 -15 4 -8 18 -15 34 -15 15 0 33 -7 40
-15 7 -8 26 -15 42 -15 16 0 31 -6 34 -15 4 -10 20 -15 49 -15 29 0 45 -5 49
-15 3 -10 19 -15 43 -15 21 0 47 -7 57 -15 11 -8 32 -15 47 -15 15 0 31 -4 34
-10 3 -5 14 -10 23 -10 10 0 56 -20 105 -44 72 -36 87 -40 87 -26 0 10 -7 23
-15 30 -8 7 -15 19 -15 26 0 8 -4 14 -9 14 -4 0 -20 17 -34 39 -14 21 -43 49
-64 62 -21 13 -39 27 -41 31 -2 4 -14 8 -26 8 -12 0 -30 6 -41 14 -11 7 -53
16 -93 18 -69 5 -73 4 -70 -15 4 -27 -26 -46 -49 -31 -19 11 -31 53 -16 55 67
6 63 19 -6 19 -46 0 -63 4 -67 15 -4 8 -18 15 -34 15 -15 0 -33 7 -40 15 -7 8
-18 15 -24 15 -7 0 -23 13 -36 30 -14 16 -28 29 -32 30 -19 1 -138 138 -138
159 0 6 -7 11 -15 11 -8 0 -15 6 -15 14 0 7 -7 19 -15 26 -8 7 -15 21 -15 31
0 11 -7 19 -15 19 -9 0 -15 9 -15 24 0 13 -7 26 -15 30 -8 3 -15 16 -15 30 0
13 -7 26 -15 30 -10 3 -15 19 -15 43 0 21 -7 47 -15 57 -22 29 -18 51 10 70
27 18 76 21 90 7 6 -5 28 -11 50 -13 l40 -3 3 -54 c3 -52 19 -87 55 -123 20
-21 40 -23 68 -7 12 6 37 8 60 4 42 -7 54 -25 17 -25 -13 0 -30 -5 -38 -10
-12 -8 -9 -10 13 -10 15 0 30 -7 33 -15 4 -8 12 -15 20 -15 8 0 14 -7 14 -15
0 -8 7 -15 15 -15 8 0 15 -6 15 -14 0 -8 7 -16 15 -20 8 -3 15 -14 15 -25 0
-10 7 -21 15 -25 8 -3 15 -10 15 -16 0 -14 111 -125 133 -133 9 -4 17 -11 17
-17 0 -5 11 -10 25 -10 14 0 28 -7 31 -15 4 -8 18 -15 34 -15 28 0 28 0 14 29
-8 17 -24 33 -35 36 -34 11 -99 90 -99 120 0 9 -7 23 -15 31 -8 9 -15 26 -15
38 0 13 -7 29 -15 36 -8 7 -15 23 -15 36 0 13 -3 24 -7 24 -5 0 -17 14 -28 30
-15 22 -28 30 -51 30 -30 0 -64 25 -64 47 0 6 -7 14 -16 17 -10 4 -14 16 -12
38 l3 33 83 3 c67 2 83 0 88 -13 4 -10 20 -15 49 -15 29 0 45 -5 49 -15 3 -8
17 -15 31 -15 16 0 25 -6 25 -15 0 -8 7 -15 15 -15 8 0 15 -7 15 -15 0 -8 7
-15 15 -15 10 0 15 -10 15 -26 0 -22 2 -24 15 -14 21 17 32 6 39 -43 6 -42 8
-44 39 -43 55 2 46 -19 -10 -22 l-53 -3 0 -63 c0 -48 4 -65 15 -70 8 -3 15
-17 15 -31 0 -14 7 -28 15 -31 8 -4 15 -11 15 -16 0 -34 96 -52 120 -23 7 8
19 15 26 15 20 0 19 93 -1 110 -8 7 -15 29 -15 50 0 24 -5 40 -15 44 -8 3 -15
15 -15 26 0 11 -7 23 -15 26 -8 4 -15 12 -15 20 0 7 -6 17 -12 21 -15 9 -36
41 -44 66 -4 9 -13 17 -20 17 -8 0 -14 7 -14 15 0 9 -7 18 -15 21 -8 4 -15 11
-15 18 -1 16 -32 51 -52 59 -10 3 -18 11 -18 16 0 5 -11 12 -25 15 -14 4 -25
11 -25 16 0 6 -9 10 -19 10 -11 0 -26 7 -35 15 -8 8 -28 15 -44 15 -16 0 -35
7 -42 15 -8 10 -31 15 -72 15 -43 0 -60 4 -64 15 -5 13 -38 15 -209 15 -154 0
-213 4 -245 15 -23 8 -76 15 -116 15 -62 0 -75 -3 -84 -19z m455 -192 c0 -24
-5 -34 -15 -34 -16 0 -25 37 -16 62 10 26 31 8 31 -28z m715 -399 c0 -5 -4
-10 -10 -10 -5 0 -10 5 -10 10 0 6 5 10 10 10 6 0 10 -4 10 -10z m-172 -303
c3 -21 -1 -27 -16 -27 -27 0 -32 9 -20 36 14 31 32 26 36 -9z"/>
<path d="M6958 6125 c-2 -3 -40 -12 -84 -20 -43 -9 -100 -20 -126 -25 -26 -5
-56 -13 -67 -19 -11 -6 -35 -11 -53 -11 -54 0 -126 -30 -132 -56 -9 -33 5
-146 20 -169 8 -11 14 -27 14 -36 0 -9 7 -22 15 -29 8 -7 15 -20 15 -30 0 -10
7 -23 15 -30 8 -7 15 -22 15 -34 0 -12 7 -31 15 -42 8 -10 15 -31 15 -45 0
-15 6 -44 14 -65 19 -54 29 -367 17 -524 -10 -128 -24 -234 -42 -305 -6 -22
-14 -60 -18 -85 -5 -25 -13 -58 -20 -73 -6 -16 -11 -41 -11 -56 0 -15 -7 -36
-15 -47 -8 -10 -15 -33 -15 -50 0 -16 -7 -39 -15 -50 -8 -10 -15 -31 -15 -45
0 -14 -7 -34 -15 -45 -8 -10 -15 -28 -15 -40 0 -11 -7 -29 -15 -40 -8 -10 -15
-28 -15 -40 0 -11 -7 -29 -15 -40 -8 -10 -15 -29 -15 -40 0 -12 -7 -27 -15
-34 -8 -7 -15 -20 -15 -30 0 -10 -7 -23 -15 -30 -8 -7 -15 -20 -15 -29 0 -9
-5 -22 -11 -28 -14 -14 -35 -50 -50 -85 -6 -16 -15 -28 -20 -28 -5 0 -9 -9 -9
-20 0 -11 -7 -23 -15 -26 -8 -4 -15 -12 -15 -19 0 -6 -13 -30 -28 -51 -16 -21
-31 -46 -35 -54 -4 -8 -16 -28 -27 -45 -11 -16 -24 -40 -30 -52 -5 -13 -14
-23 -20 -23 -5 0 -10 -6 -10 -14 0 -8 -6 -21 -12 -28 -17 -19 -36 -48 -48 -75
-5 -13 -14 -23 -20 -23 -5 0 -10 -5 -10 -11 0 -5 -15 -30 -32 -53 -18 -24 -40
-54 -48 -66 -8 -12 -21 -28 -27 -36 -7 -7 -13 -17 -13 -23 0 -6 -7 -11 -15
-11 -8 0 -15 -6 -15 -14 0 -7 -7 -19 -15 -26 -28 -23 -18 -73 21 -111 20 -18
46 -50 59 -69 35 -54 103 -119 130 -126 14 -3 35 -4 48 -1 12 4 128 8 257 11
178 3 246 8 280 20 25 9 53 16 63 16 35 0 153 66 198 110 48 47 89 117 89 151
0 11 5 29 10 40 6 11 15 97 20 192 5 94 14 231 21 303 10 107 10 167 -1 324
-14 206 -5 361 25 425 45 97 58 123 76 150 10 17 24 42 30 58 6 15 14 27 19
27 4 0 10 8 14 18 3 9 15 31 25 47 23 35 51 93 74 150 29 74 43 410 27 673
-11 194 -15 489 -7 572 2 20 -4 27 -33 37 -34 11 -301 19 -312 8z"/>
<path d="M2775 6050 c-33 -4 -70 -12 -82 -18 -12 -7 -33 -12 -46 -12 -14 0
-38 -7 -53 -15 -16 -8 -43 -15 -60 -15 -18 0 -45 -7 -60 -15 -16 -8 -39 -15
-50 -15 -12 0 -35 -7 -50 -15 -34 -17 -193 -20 -264 -4 -25 6 -72 14 -105 20
-32 5 -64 14 -69 19 -6 6 -29 10 -51 10 -23 0 -64 7 -91 15 -63 19 -162 19
-207 0 -27 -11 -75 -15 -185 -15 l-149 0 -36 -37 c-21 -20 -37 -42 -37 -48 0
-7 -7 -18 -15 -25 -8 -7 -15 -20 -15 -30 0 -10 -7 -23 -15 -30 -8 -7 -15 -27
-15 -44 0 -17 -7 -44 -15 -60 -8 -15 -15 -41 -15 -57 0 -17 -7 -46 -15 -66 -8
-19 -15 -52 -15 -72 -1 -20 -7 -54 -15 -76 -8 -22 -15 -56 -15 -75 0 -19 -5
-53 -11 -75 -6 -22 -15 -73 -20 -114 -5 -41 -13 -79 -18 -85 -4 -6 -11 -42
-14 -80 -4 -38 -11 -74 -17 -80 -5 -5 -10 -30 -10 -54 0 -24 -6 -58 -14 -75
-8 -18 -17 -50 -20 -72 -3 -22 -10 -41 -16 -43 -14 -5 -14 -302 0 -302 14 0
13 -57 -1 -62 -25 -8 -39 -84 -39 -208 0 -69 4 -130 8 -136 15 -23 78 -43 130
-41 41 2 56 -2 63 -14 5 -11 28 -18 69 -22 33 -3 66 -10 73 -16 7 -5 32 -9 55
-8 31 2 48 -3 59 -15 12 -14 32 -18 84 -18 40 0 69 -4 71 -11 2 -6 38 -17 79
-23 l75 -12 12 25 c7 14 12 48 12 76 0 30 6 59 15 71 8 10 15 31 15 45 0 14 7
34 15 45 8 10 15 31 15 45 0 14 7 34 15 45 8 10 15 27 15 37 0 11 6 31 14 45
7 15 25 53 40 84 14 31 34 63 45 70 10 7 21 27 25 44 4 18 29 54 60 85 29 30
56 64 60 76 4 12 19 26 34 31 15 5 53 34 85 65 79 75 119 107 133 107 6 0 17
7 24 15 7 8 20 15 30 15 10 0 31 7 46 15 16 8 41 15 56 15 15 0 29 4 33 9 3 5
20 12 38 16 47 10 120 35 207 72 86 37 106 46 120 54 8 5 22 12 30 15 8 3 27
12 42 20 14 8 33 14 42 14 9 0 16 4 16 10 0 5 12 13 28 16 15 4 29 10 32 13 3
3 36 22 75 41 84 42 142 97 180 170 l29 55 -1 208 c-2 212 -2 212 -47 306 -16
34 -95 111 -115 111 -9 0 -25 7 -35 15 -11 8 -32 15 -48 15 -15 0 -45 6 -65
14 -51 19 -96 23 -168 16z"/>
<path d="M5185 5571 c-11 -5 -32 -10 -46 -10 -15 -1 -32 -8 -39 -16 -7 -8 -20
-15 -30 -15 -10 0 -20 -7 -24 -15 -3 -8 -12 -15 -21 -15 -8 0 -15 -4 -15 -9 0
-5 -10 -13 -22 -17 -28 -8 -65 -40 -106 -89 -20 -24 -18 -201 2 -240 9 -16 16
-35 16 -41 0 -6 11 -31 25 -55 14 -24 28 -51 32 -59 3 -8 9 -17 12 -20 3 -3
18 -23 33 -45 15 -22 39 -53 54 -70 l26 -30 138 1 c110 1 142 5 161 18 13 9
31 16 40 16 38 0 89 34 172 116 94 92 114 141 98 239 -14 91 -25 126 -56 175
-29 48 -107 112 -165 135 -8 4 -28 12 -45 20 -55 25 -206 41 -240 26z"/>
<path d="M4112 5518 c-2 -30 -31 -89 -49 -101 -7 -4 -13 -21 -13 -37 0 -16 -4
-32 -10 -35 -5 -3 -10 -31 -10 -61 0 -60 -13 -94 -35 -94 -17 0 -23 23 -29
105 -2 33 -3 -19 -1 -115 1 -119 6 -175 14 -178 6 -2 11 -10 11 -17 0 -8 15
-29 34 -47 18 -18 35 -41 37 -51 3 -16 11 -12 47 22 23 22 42 45 42 51 0 5 5
10 11 10 5 0 15 14 20 30 6 17 15 30 20 30 5 0 9 47 9 104 0 80 -3 106 -15
116 -8 7 -15 29 -15 50 0 21 -7 43 -15 50 -8 7 -15 29 -15 50 0 24 -5 40 -14
43 -9 4 -16 24 -19 54 -2 26 -4 36 -5 21z m-97 -358 c3 -5 1 -19 -6 -31 -10
-20 -12 -21 -21 -5 -16 29 10 64 27 36z m33 -128 c4 -50 -17 -65 -48 -37 -24
22 -25 43 -3 67 27 30 48 19 51 -30z"/>
<path d="M3960 5461 c0 -22 5 -43 10 -46 6 -4 10 8 10 27 0 19 5 39 12 46 9 9
7 12 -10 12 -19 0 -22 -5 -22 -39z"/>
<path d="M3962 5380 c0 -14 2 -19 5 -12 2 6 2 18 0 25 -3 6 -5 1 -5 -13z"/>
<path d="M9206 5135 c-19 -15 -19 -15 1 -15 12 0 25 5 28 10 8 12 172 13 179
1 3 -5 22 -12 41 -15 19 -4 35 -11 35 -15 0 -5 16 -12 35 -15 19 -4 35 -11 35
-16 0 -6 9 -10 19 -10 11 0 41 -20 68 -45 26 -25 55 -45 63 -45 8 0 -10 23
-40 50 -30 27 -63 50 -73 50 -10 0 -29 12 -42 26 -31 34 -119 53 -240 53 -64
0 -96 -4 -109 -14z"/>
<path d="M8910 5090 c20 -13 160 -13 160 0 0 6 -36 10 -87 10 -61 0 -83 -3
-73 -10z"/>
<path d="M9152 5075 c-11 -12 -10 -15 3 -15 8 0 15 7 15 15 0 18 -2 18 -18 0z"/>
<path d="M8712 5040 c0 -19 2 -27 5 -17 2 9 2 25 0 35 -3 9 -5 1 -5 -18z"/>
<path d="M9208 5022 c23 -23 50 -34 57 -23 6 11 -38 41 -60 41 -12 0 -12 -3 3
-18z"/>
<path d="M9316 4936 c3 -8 12 -17 20 -20 11 -4 12 -2 1 14 -14 23 -29 27 -21
6z"/>
<path d="M9741 4934 c0 -11 3 -14 6 -6 3 7 2 16 -1 19 -3 4 -6 -2 -5 -13z"/>
<path d="M9397 4844 c-3 -4 6 -25 21 -47 24 -37 27 -38 30 -18 4 22 -39 77
-51 65z"/>
<path d="M9861 4754 c0 -11 3 -14 6 -6 3 7 2 16 -1 19 -3 4 -6 -2 -5 -13z"/>
<path d="M10195 4710 c-22 -11 -45 -19 -50 -20 -6 0 -16 -9 -23 -21 -13 -20
-14 -20 -33 -3 -18 16 -19 16 -19 -3 0 -25 35 -59 45 -44 3 6 13 11 21 11 7 0
33 18 55 40 l41 40 98 0 c80 0 102 -3 121 -19 13 -10 45 -29 71 -41 26 -12 69
-45 95 -72 110 -116 123 -128 133 -128 5 0 10 -6 10 -14 0 -8 19 -29 43 -48
23 -18 48 -38 55 -45 7 -7 22 -13 33 -13 24 0 25 -17 2 -24 -10 -3 -70 -8
-133 -12 -63 -4 -125 -10 -137 -15 -12 -4 -66 -11 -120 -14 -54 -4 -102 -11
-107 -16 -6 -5 -20 -9 -32 -9 -12 0 -27 -7 -34 -15 -7 -8 -18 -15 -24 -15 -6
0 -17 -9 -24 -20 -11 -19 -10 -20 30 -20 24 0 54 7 68 15 94 54 124 62 250 70
69 4 143 8 165 10 22 2 243 6 490 11 406 6 457 5 525 -10 88 -20 385 -24 515
-6 44 6 112 14 151 19 39 4 77 11 83 16 7 4 56 11 109 15 100 8 185 24 213 40
9 5 33 12 54 16 21 4 61 16 89 26 28 11 62 22 76 25 14 3 32 11 40 18 8 7 89
20 180 29 91 10 192 24 225 31 33 8 128 17 210 19 83 3 200 10 260 16 61 5
173 10 250 10 212 -1 239 -1 232 6 -3 3 -191 5 -419 5 -354 -2 -434 -5 -558
-22 -80 -11 -175 -24 -213 -29 -37 -5 -82 -13 -100 -19 -17 -5 -68 -17 -112
-27 -103 -21 -188 -51 -231 -80 -29 -20 -51 -24 -152 -29 -111 -5 -182 -14
-394 -51 -120 -21 -261 -28 -286 -15 -11 6 -68 13 -128 17 -60 4 -117 11 -128
16 -11 6 -183 10 -432 10 -348 -1 -416 1 -428 14 -8 7 -19 14 -24 14 -5 0 -24
16 -43 36 -19 20 -40 41 -48 47 -8 7 -38 36 -66 65 -29 28 -57 52 -61 52 -5 0
-16 15 -24 32 -8 17 -29 39 -46 48 -18 9 -46 28 -64 43 -17 15 -37 27 -45 27
-7 0 -26 7 -41 15 -45 23 -207 20 -259 -5z"/>
<path d="M4460 4705 c-7 -8 -18 -15 -25 -15 -7 0 -18 -7 -25 -15 -7 -8 -19
-15 -27 -15 -8 0 -21 -7 -29 -15 -9 -8 -26 -15 -40 -15 -13 0 -24 -4 -24 -10
0 -5 -10 -10 -22 -10 -13 0 -36 -7 -52 -15 -15 -8 -46 -15 -69 -15 -39 0 -40
0 -22 -20 17 -18 17 -20 1 -26 -10 -4 -22 -2 -27 3 -11 11 -69 -5 -69 -18 0
-4 14 -13 30 -21 17 -7 30 -19 30 -25 0 -9 18 -13 59 -13 40 0 65 -5 75 -15 8
-8 28 -15 45 -15 16 0 36 -7 45 -15 18 -18 73 -20 90 -2 7 7 16 25 20 40 3 15
11 27 16 27 6 0 10 9 10 19 0 11 7 26 15 35 8 8 15 26 15 39 0 14 7 30 15 37
21 17 19 67 -4 91 -16 17 -19 18 -31 4z"/>
<path d="M9501 4664 c0 -11 3 -14 6 -6 3 7 2 16 -1 19 -3 4 -6 -2 -5 -13z"/>
<path d="M9520 4633 c0 -4 5 -15 10 -23 8 -13 10 -13 10 2 0 9 -4 20 -10 23
-5 3 -10 3 -10 -2z"/>
<path d="M9980 4607 c0 -10 4 -17 9 -17 5 0 14 -12 19 -27 l10 -28 1 26 c1 14
-8 34 -19 44 -18 16 -20 16 -20 2z"/>
<path d="M8680 4590 c-12 -22 -1 -27 18 -8 14 14 184 13 212 -2 10 -5 47 -10
82 -9 l63 0 -60 19 c-46 15 -89 20 -182 20 -112 0 -123 -2 -133 -20z"/>
<path d="M8622 4560 c0 -14 2 -19 5 -12 2 6 2 18 0 25 -3 6 -5 1 -5 -13z"/>
<path d="M9103 4543 c9 -2 23 -2 30 0 6 3 -1 5 -18 5 -16 0 -22 -2 -12 -5z"/>
<path d="M14535 4532 c-13 -14 14 -22 73 -22 39 -1 77 -7 92 -15 29 -16 74
-20 65 -5 -3 6 -14 10 -24 10 -10 0 -31 6 -47 14 -28 13 -150 27 -159 18z"/>
<path d="M9207 4489 c7 -7 15 -10 18 -7 3 3 -2 9 -12 12 -14 6 -15 5 -6 -5z"/>
<path d="M9592 4470 c0 -14 2 -19 5 -12 2 6 2 18 0 25 -3 6 -5 1 -5 -13z"/>
<path d="M9610 4438 c0 -7 5 -20 10 -28 8 -12 10 -11 10 7 0 12 -4 25 -10 28
-5 3 -10 0 -10 -7z"/>
<path d="M15188 4373 c6 -2 18 -2 25 0 6 3 1 5 -13 5 -14 0 -19 -2 -12 -5z"/>
<path d="M9677 4302 c2 -10 13 -23 24 -30 16 -10 19 -9 19 6 0 21 -18 42 -36
42 -7 0 -10 -8 -7 -18z"/>
<path d="M15368 4313 c6 -2 18 -2 25 0 6 3 1 5 -13 5 -14 0 -19 -2 -12 -5z"/>
<path d="M9740 4245 c0 -15 34 -55 46 -55 8 0 14 -4 14 -10 0 -5 4 -10 9 -10
20 0 -2 36 -35 58 -18 12 -34 20 -34 17z"/>
<path d="M10443 4173 c15 -2 39 -2 55 0 15 2 2 4 -28 4 -30 0 -43 -2 -27 -4z"/>
<path d="M10743 4173 c9 -2 23 -2 30 0 6 3 -1 5 -18 5 -16 0 -22 -2 -12 -5z"/>
<path d="M10828 4140 c2 -16 6 -30 8 -30 2 0 4 14 4 30 0 17 -4 30 -8 30 -5 0
-7 -13 -4 -30z"/>
<path d="M8800 4145 c0 -8 4 -15 8 -15 5 0 14 -10 20 -22 10 -23 11 -23 11 4
1 18 -6 31 -19 38 -16 9 -20 8 -20 -5z"/>
<path d="M10122 4153 c-6 -3 -15 -21 -18 -42 -5 -29 -12 -40 -34 -48 -25 -9
-46 -54 -32 -68 10 -10 72 70 72 93 0 14 6 22 18 22 18 0 42 18 42 31 0 9 -32
17 -48 12z"/>
<path d="M9854 4134 c3 -9 6 -18 6 -20 0 -2 9 -4 20 -4 23 0 26 10 8 28 -18
18 -41 15 -34 -4z"/>
<path d="M15798 4113 c6 -2 18 -2 25 0 6 3 1 5 -13 5 -14 0 -19 -2 -12 -5z"/>
<path d="M10855 4059 c10 -55 8 -332 -3 -384 l-7 -40 -140 -3 c-109 -3 -144
-7 -157 -19 -14 -13 -41 -15 -156 -11 -80 2 -145 8 -153 14 -8 6 -26 14 -41
18 -16 3 -28 11 -28 16 0 6 -7 10 -15 10 -8 0 -15 4 -15 10 0 5 -11 12 -25 16
-15 4 -28 16 -31 30 -3 13 -10 24 -14 24 -5 0 -15 3 -24 6 -13 5 -15 1 -9 -27
8 -42 39 -68 79 -69 22 0 38 -9 60 -35 16 -19 35 -35 42 -35 16 0 55 -22 64
-36 4 -6 32 -19 62 -29 31 -11 56 -23 56 -27 0 -4 13 -8 30 -8 45 0 27 26 -22
33 -23 3 -45 13 -50 21 -5 9 -20 16 -33 16 -18 0 -25 5 -25 20 0 19 7 20 131
20 73 0 139 -5 150 -11 14 -7 30 -7 52 0 18 6 75 12 127 14 104 3 153 20 122
43 -14 10 -14 14 1 47 23 49 25 298 2 317 -9 7 -15 29 -15 51 0 21 -5 41 -11
45 -8 5 -9 -6 -4 -37z"/>
<path d="M8863 4055 c0 -22 2 -30 4 -17 2 12 2 30 0 40 -3 9 -5 -1 -4 -23z"/>
<path d="M9483 4023 c9 -2 23 -2 30 0 6 3 -1 5 -18 5 -16 0 -22 -2 -12 -5z"/>
<path d="M8890 3991 c0 -12 9 -31 20 -43 18 -19 20 -20 20 -4 0 10 -9 29 -20
43 -19 25 -20 25 -20 4z"/>
<path d="M9770 3970 c0 -5 5 -10 11 -10 5 0 7 5 4 10 -3 6 -8 10 -11 10 -2 0
-4 -4 -4 -10z"/>
<path d="M10009 3948 c-1 -18 0 -49 1 -69 1 -28 -4 -38 -22 -47 -23 -11 -23
-11 -1 -11 18 -1 23 -8 26 -38 2 -21 4 15 5 80 1 64 0 117 -3 117 -3 0 -5 -15
-6 -32z"/>
<path d="M16160 3966 c0 -2 7 -9 15 -16 12 -10 15 -10 15 4 0 9 -7 16 -15 16
-8 0 -15 -2 -15 -4z"/>
<path d="M9800 3950 c0 -5 5 -10 11 -10 5 0 7 5 4 10 -3 6 -8 10 -11 10 -2 0
-4 -4 -4 -10z"/>
<path d="M9898 3880 c12 -5 22 -14 22 -20 0 -5 10 -10 23 -9 14 0 17 2 7 6 -8
3 -19 12 -23 19 -4 8 -18 14 -30 13 l-22 0 23 -9z"/>
<path d="M16351 3869 c15 -15 26 -19 36 -13 26 16 18 29 -20 32 l-38 3 22 -22z"/>
<path d="M8976 3862 c-3 -6 -1 -14 5 -17 15 -10 25 3 12 16 -7 7 -13 7 -17 1z"/>
<path d="M16428 3853 c7 -3 16 -2 19 1 4 3 -2 6 -13 5 -11 0 -14 -3 -6 -6z"/>
<path d="M9040 3786 c0 -8 4 -17 9 -20 5 -4 7 3 4 14 -6 23 -13 26 -13 6z"/>
<path d="M9070 3740 c0 -5 7 -10 15 -10 8 0 15 -7 15 -15 0 -8 5 -15 10 -15
16 0 12 15 -8 33 -21 19 -32 22 -32 7z"/>
<path d="M9250 3540 c0 -5 7 -10 15 -10 8 0 15 -5 15 -12 0 -6 3 -8 6 -5 8 8
-14 37 -27 37 -5 0 -9 -4 -9 -10z"/>
<path d="M9315 3480 c3 -5 14 -10 23 -10 15 0 15 2 2 10 -20 13 -33 13 -25 0z"/>
<path d="M10490 3450 c0 -35 3 -37 30 -10 19 19 19 20 0 30 -27 15 -30 13 -30
-20z"/>
<path d="M9389 3420 c40 -39 61 -50 61 -30 0 6 -6 10 -14 10 -7 0 -23 14 -36
30 -13 17 -30 30 -38 30 -8 0 3 -17 27 -40z"/>
<path d="M10568 3423 c12 -2 30 -2 40 0 9 3 -1 5 -23 4 -22 0 -30 -2 -17 -4z"/>
<path d="M10747 3424 c-13 -13 15 -34 45 -34 23 0 29 4 26 18 -3 17 -57 30
-71 16z"/>
<path d="M10888 3393 c12 -2 32 -2 45 0 12 2 2 4 -23 4 -25 0 -35 -2 -22 -4z"/>
<path d="M11080 3370 c-11 -7 -2 -10 32 -10 26 0 48 -5 50 -12 4 -12 20 -13
140 -9 53 2 66 6 61 17 -4 11 -31 14 -123 14 -65 0 -124 2 -132 5 -7 3 -20 0
-28 -5z"/>
<path d="M9450 3364 c0 -3 29 -35 65 -69 36 -35 65 -68 65 -72 0 -18 48 -55
55 -43 4 6 -9 25 -29 44 -20 18 -36 37 -36 42 0 13 -96 104 -109 104 -6 0 -11
-3 -11 -6z"/>
<path d="M11450 3360 c0 -6 -10 -15 -22 -20 -16 -6 8 -9 82 -10 205 -3 432
-11 494 -18 75 -9 92 -6 75 14 -9 11 -47 14 -173 14 -127 0 -166 3 -182 15
-23 17 -274 22 -274 5z"/>
<path d="M12470 3276 c0 -2 7 -6 15 -10 8 -3 15 -1 15 4 0 6 -7 10 -15 10 -8
0 -15 -2 -15 -4z"/>
<path d="M12778 3183 c7 -3 16 -2 19 1 4 3 -2 6 -13 5 -11 0 -14 -3 -6 -6z"/>
<path d="M9640 3161 c0 -5 7 -16 15 -24 7 -8 17 -25 20 -39 3 -13 15 -29 26
-36 16 -10 19 -9 19 7 0 10 -7 24 -15 31 -8 7 -15 19 -15 26 0 8 -7 14 -15 14
-8 0 -15 7 -15 15 0 8 -4 15 -10 15 -5 0 -10 -4 -10 -9z"/>
<path d="M9770 2975 c0 -6 69 -75 75 -75 8 0 -9 34 -25 50 -16 16 -50 33 -50
25z"/>
<path d="M9860 2880 c0 -5 10 -10 23 -10 18 0 19 2 7 10 -19 13 -30 13 -30 0z"/>
<path d="M9962 2838 c-19 -19 -14 -28 13 -28 27 0 28 1 19 24 -7 19 -16 20
-32 4z"/>
<path d="M10125 2750 c11 -12 31 -20 49 -20 l31 0 -38 20 c-20 11 -42 20 -49
20 -6 0 -3 -9 7 -20z"/>
<path d="M10305 2680 c-7 -11 58 -40 89 -39 21 0 21 0 1 9 -12 4 -27 15 -34
24 -15 18 -46 21 -56 6z"/>
<path d="M10470 2596 c0 -3 8 -15 17 -26 23 -26 53 -26 53 0 0 11 -6 20 -12
20 -7 0 -23 3 -35 6 -13 4 -23 4 -23 0z"/>
<path d="M10614 2494 c3 -9 6 -18 6 -20 0 -2 11 -4 25 -4 13 0 28 -7 33 -16 5
-9 18 -14 31 -12 20 3 18 6 -20 36 -46 35 -86 43 -75 16z"/>
<path d="M10758 2413 c6 -2 18 -2 25 0 6 3 1 5 -13 5 -14 0 -19 -2 -12 -5z"/>
<path d="M11025 2300 c-8 -13 3 -30 20 -30 8 0 11 7 8 20 -6 22 -18 26 -28 10z"/>
<path d="M14365 2222 c-67 -1 -122 -7 -126 -13 -3 -6 -28 -14 -55 -18 l-49 -7
69 -6 c50 -4 81 -2 110 9 26 10 73 15 131 14 50 0 113 3 140 8 l50 9 -62 1
c-34 0 -67 2 -75 4 -7 1 -67 1 -133 -1z"/>
<path d="M14790 2220 c-52 -4 -3 -7 159 -8 129 -1 232 0 230 2 -8 8 -315 13
-389 6z"/>
<path d="M11206 2210 c12 -5 25 -13 29 -19 3 -6 18 -11 33 -10 26 1 26 1 -5
11 -18 6 -33 15 -33 19 0 5 -10 9 -22 8 l-23 0 21 -9z"/>
<path d="M15233 2203 c-33 -13 -6 -23 58 -23 62 0 70 2 59 15 -12 15 -89 20
-117 8z"/>
<path d="M15457 2183 c18 -2 50 -2 70 0 21 2 7 4 -32 4 -38 0 -55 -2 -38 -4z"/>
<path d="M11396 2132 c-8 -13 33 -44 48 -35 6 4 4 8 -4 11 -8 3 -20 12 -26 20
-7 10 -13 11 -18 4z"/>
<path d="M13575 2120 c7 -12 52 -12 80 0 15 6 6 9 -33 9 -33 1 -51 -3 -47 -9z"/>
<path d="M15858 2123 c6 -2 18 -2 25 0 6 3 1 5 -13 5 -14 0 -19 -2 -12 -5z"/>
<path d="M11522 2033 c2 -12 14 -19 36 -21 32 -3 33 -3 15 17 -22 26 -56 28
-51 4z"/>
<path d="M13008 2043 c7 -3 16 -2 19 1 4 3 -2 6 -13 5 -11 0 -14 -3 -6 -6z"/>
<path d="M16180 2019 c0 -5 11 -9 25 -9 14 0 25 2 25 4 0 2 -11 6 -25 8 -14 3
-25 1 -25 -3z"/>
<path d="M12958 2013 c7 -3 16 -2 19 1 4 3 -2 6 -13 5 -11 0 -14 -3 -6 -6z"/>
<path d="M11618 1980 c12 -5 25 -16 28 -25 9 -23 224 -144 257 -145 18 0 51
-13 122 -45 31 -15 170 -23 182 -12 3 4 -26 7 -65 7 -73 0 -95 9 -174 69 -14
12 -33 21 -42 21 -9 0 -35 12 -59 27 -23 15 -50 26 -60 24 -10 -1 -30 9 -44
23 -14 14 -34 26 -43 26 -10 0 -29 9 -43 20 -14 11 -38 20 -54 19 -27 0 -27
-1 -5 -9z"/>
<path d="M12520 1950 c0 -5 11 -10 25 -10 14 0 25 5 25 10 0 6 -11 10 -25 10
-14 0 -25 -4 -25 -10z"/>
<path d="M12643 1953 c9 -2 23 -2 30 0 6 3 -1 5 -18 5 -16 0 -22 -2 -12 -5z"/>
<path d="M13098 1949 c-22 -12 -23 -29 -3 -29 8 0 15 6 15 14 0 8 12 17 28 19
26 4 26 4 2 5 -14 1 -33 -3 -42 -9z"/>
<path d="M16360 1956 c0 -2 9 -6 20 -9 11 -3 20 -1 20 4 0 5 -9 9 -20 9 -11 0
-20 -2 -20 -4z"/>
<path d="M12358 1923 c18 -2 45 -2 60 0 15 2 0 4 -33 4 -33 0 -45 -2 -27 -4z"/>
<path d="M12993 1923 c9 -2 25 -2 35 0 9 3 1 5 -18 5 -19 0 -27 -2 -17 -5z"/>
<path d="M3469 1094 l-34 -37 43 23 c23 13 42 30 42 37 0 22 -14 15 -51 -23z"/>
<path d="M670 1022 c0 -5 7 -12 15 -16 12 -4 15 -26 15 -111 0 -85 -3 -107
-15 -111 -33 -13 -12 -24 45 -24 58 0 80 12 40 23 -18 5 -20 14 -20 116 l0
111 29 0 c33 0 61 -22 61 -48 0 -26 -27 -60 -50 -64 -18 -3 -16 -9 25 -70 42
-62 48 -68 80 -68 19 0 35 5 35 10 0 6 -6 10 -12 10 -7 0 -30 26 -50 57 l-36
56 29 28 c32 30 36 55 15 85 -12 16 -29 20 -110 22 -59 3 -96 0 -96 -6z"/>
<path d="M960 1020 c0 -5 7 -10 15 -10 12 0 15 -19 15 -109 0 -63 -4 -112 -10
-116 -28 -17 -1 -25 84 -25 98 0 107 4 105 48 0 13 -3 11 -11 -5 -9 -20 -19
-23 -65 -23 l-53 0 0 55 0 55 38 0 c30 0 41 -5 50 -22 9 -20 11 -16 11 27 0
39 -2 46 -10 33 -7 -12 -22 -18 -49 -18 l-40 0 0 50 0 50 50 0 c43 0 52 -3 60
-22 8 -21 9 -20 9 10 l1 32 -100 0 c-60 0 -100 -4 -100 -10z"/>
<path d="M1305 1021 c-70 -18 -105 -61 -105 -129 0 -88 83 -141 197 -127 67 8
70 24 3 17 -84 -8 -131 24 -145 99 -13 68 33 129 96 129 51 0 69 -8 82 -39
l11 -26 4 29 c2 16 0 32 -5 37 -12 12 -104 19 -138 10z"/>
<path d="M1480 1021 c0 -5 9 -11 20 -14 18 -5 20 -14 20 -106 0 -93 2 -102 23
-115 34 -23 92 -29 132 -16 48 16 65 56 65 155 0 58 3 77 15 81 30 12 14 24
-30 24 -46 0 -61 -14 -25 -23 18 -5 20 -14 20 -86 0 -97 -16 -121 -78 -121
-60 0 -72 20 -72 123 0 71 3 87 15 87 8 0 15 5 15 10 0 6 -27 10 -60 10 -33 0
-60 -4 -60 -9z"/>
<path d="M1800 1020 c0 -5 7 -10 15 -10 12 0 15 -19 15 -115 0 -96 -3 -115
-15 -115 -8 0 -15 -4 -15 -10 0 -6 27 -10 60 -10 58 0 80 12 40 23 -18 5 -20
14 -20 116 l0 111 28 0 c36 0 52 -17 52 -55 0 -36 -15 -55 -44 -55 -15 0 -17
-3 -9 -11 17 -17 72 -1 90 27 22 35 20 75 -7 96 -17 14 -40 18 -106 18 -49 0
-84 -4 -84 -10z"/>
<path d="M2040 1020 c0 -5 7 -10 15 -10 12 0 15 -19 15 -109 0 -63 -4 -112
-10 -116 -28 -17 -1 -25 84 -25 98 0 107 4 105 48 0 13 -3 11 -11 -5 -9 -20
-19 -23 -65 -23 l-53 0 0 55 0 55 38 0 c30 0 41 -5 50 -22 9 -20 11 -16 11 27
0 39 -2 46 -10 33 -7 -12 -22 -18 -49 -18 l-40 0 0 50 0 50 50 0 c43 0 52 -3
60 -22 8 -21 9 -20 9 10 l1 32 -100 0 c-60 0 -100 -4 -100 -10z"/>
<path d="M2280 1022 c0 -5 7 -12 15 -16 22 -8 22 -214 0 -222 -33 -13 -12 -24
45 -24 58 0 80 12 40 23 -18 5 -20 14 -20 116 l0 111 29 0 c33 0 61 -22 61
-48 0 -26 -27 -60 -50 -64 -18 -3 -16 -9 25 -70 42 -62 48 -68 80 -68 19 0 35
5 35 10 0 6 -6 10 -12 10 -7 0 -30 26 -50 57 l-36 56 29 28 c32 30 36 55 15
85 -12 16 -29 20 -110 22 -59 3 -96 0 -96 -6z"/>
<path d="M2645 909 c-27 -67 -55 -124 -62 -126 -27 -10 -12 -23 27 -23 22 0
40 5 40 10 0 6 -7 10 -15 10 -18 0 -19 14 -5 41 9 15 22 19 65 19 51 0 55 -2
61 -27 5 -17 3 -28 -4 -31 -30 -10 -7 -22 43 -22 57 0 65 5 41 24 -8 6 -37 63
-65 126 -27 63 -55 116 -63 118 -8 1 -31 -41 -63 -119z m79 -27 c7 -20 4 -22
-33 -22 -23 0 -41 2 -41 4 0 2 9 26 21 53 l21 48 13 -31 c7 -17 16 -40 19 -52z"/>
<path d="M2985 1021 c-70 -18 -105 -61 -105 -129 0 -88 83 -141 197 -127 67 8
70 24 3 17 -84 -8 -131 24 -145 99 -13 68 33 129 96 129 51 0 69 -8 82 -39
l11 -26 4 29 c2 16 0 32 -5 37 -12 12 -104 19 -138 10z"/>
<path d="M3170 1020 c0 -5 7 -10 15 -10 12 0 15 -19 15 -115 0 -96 -3 -115
-15 -115 -8 0 -15 -4 -15 -10 0 -6 27 -10 60 -10 33 0 60 4 60 10 0 6 -6 10
-14 10 -21 0 -26 23 -26 115 0 92 5 115 26 115 8 0 14 5 14 10 0 6 -27 10 -60
10 -33 0 -60 -4 -60 -10z"/>
<path d="M3429 1021 c-46 -15 -69 -31 -85 -63 -23 -44 -14 -121 16 -153 61
-65 206 -50 245 25 24 46 20 122 -9 153 -36 39 -108 55 -167 38z m112 -37 c20
-22 24 -36 24 -89 0 -53 -4 -67 -24 -89 -34 -36 -93 -36 -125 -1 -43 47 -45
137 -3 183 30 32 95 31 128 -4z"/>
<path d="M3760 1021 c0 -6 7 -11 15 -11 12 0 15 -19 15 -109 0 -63 -4 -112
-10 -116 -25 -16 -5 -25 56 -25 145 0 205 39 212 139 4 54 2 61 -26 92 l-30
34 -116 3 c-80 3 -116 1 -116 -7z m203 -31 c47 -37 48 -140 2 -186 -19 -19
-35 -24 -75 -24 l-50 0 0 115 0 115 49 0 c34 0 56 -6 74 -20z"/>
<path d="M4090 1020 c0 -5 7 -10 15 -10 12 0 15 -19 15 -109 0 -63 -4 -112
-10 -116 -28 -17 -1 -25 84 -25 98 0 107 4 105 48 0 13 -3 11 -11 -5 -9 -20
-19 -23 -65 -23 l-53 0 0 55 0 55 38 0 c30 0 41 -5 50 -22 9 -20 11 -16 11 27
0 39 -2 46 -10 33 -7 -12 -22 -18 -49 -18 l-40 0 0 50 0 50 50 0 c43 0 52 -3
60 -22 8 -21 9 -20 9 10 l1 32 -100 0 c-60 0 -100 -4 -100 -10z"/>
<path d="M4420 1021 c0 -5 6 -11 14 -14 7 -3 37 -60 66 -126 30 -69 59 -121
66 -121 8 0 14 4 14 9 0 25 104 241 116 241 8 0 14 5 14 10 0 6 -20 10 -45 10
-25 0 -45 -4 -45 -10 0 -5 7 -10 15 -10 22 0 19 -18 -19 -106 l-35 -79 -30 69
c-42 92 -47 116 -27 116 9 0 16 5 16 10 0 6 -27 10 -60 10 -33 0 -60 -4 -60
-9z"/>
<path d="M4815 909 c-27 -67 -55 -124 -62 -126 -27 -10 -12 -23 27 -23 22 0
40 5 40 10 0 6 -7 10 -15 10 -18 0 -19 14 -5 41 9 15 22 19 65 19 51 0 55 -2
61 -27 5 -17 3 -28 -4 -31 -30 -10 -7 -22 43 -22 57 0 65 5 41 24 -8 6 -37 63
-65 126 -27 63 -55 116 -63 118 -8 1 -31 -41 -63 -119z m79 -27 c7 -20 4 -22
-33 -22 -23 0 -41 2 -41 4 0 2 9 26 21 53 l21 48 13 -31 c7 -17 16 -40 19 -52z"/>
<path d="M5050 1022 c0 -5 7 -12 15 -16 12 -4 15 -26 15 -111 0 -85 -3 -107
-15 -111 -33 -13 -12 -24 45 -24 58 0 80 12 40 23 -18 5 -20 14 -20 116 l0
111 29 0 c33 0 61 -22 61 -48 0 -26 -27 -60 -50 -64 -18 -3 -16 -9 25 -70 42
-62 48 -68 80 -68 19 0 35 5 35 10 0 6 -6 10 -12 10 -7 0 -30 26 -50 57 l-36
56 29 28 c32 30 36 55 15 85 -12 16 -29 20 -110 22 -59 3 -96 0 -96 -6z"/>
<path d="M5340 1020 c0 -5 7 -10 15 -10 12 0 15 -19 15 -115 0 -96 -3 -115
-15 -115 -8 0 -15 -4 -15 -10 0 -6 27 -10 60 -10 33 0 60 4 60 10 0 6 -6 10
-14 10 -21 0 -26 23 -26 115 0 92 5 115 26 115 8 0 14 5 14 10 0 6 -27 10 -60
10 -33 0 -60 -4 -60 -10z"/>
<path d="M5500 1020 c0 -5 7 -10 15 -10 12 0 15 -19 15 -109 0 -63 -4 -112
-10 -116 -28 -17 -1 -25 84 -25 98 0 107 4 105 48 0 13 -3 11 -11 -5 -9 -20
-19 -23 -65 -23 l-53 0 0 55 0 55 38 0 c30 0 41 -5 50 -22 9 -20 11 -16 11 27
0 39 -2 46 -10 33 -7 -12 -22 -18 -49 -18 l-40 0 0 50 0 50 50 0 c43 0 52 -3
60 -22 8 -21 9 -20 9 10 l1 32 -100 0 c-60 0 -100 -4 -100 -10z"/>
<path d="M5731 998 c0 -30 1 -31 9 -10 8 18 17 22 50 22 l40 0 0 -99 c0 -108
-5 -131 -26 -131 -8 0 -14 -4 -14 -10 0 -6 27 -10 60 -10 33 0 60 4 60 10 0 6
-7 10 -15 10 -12 0 -15 19 -15 115 l0 115 40 0 c34 0 40 -3 40 -22 0 -27 5
-21 14 15 l6 27 -125 0 -125 0 1 -32z"/>
<path d="M6085 909 c-27 -67 -55 -124 -62 -126 -27 -10 -12 -23 27 -23 22 0
40 5 40 10 0 6 -7 10 -15 10 -18 0 -19 14 -5 41 9 15 22 19 65 19 51 0 55 -2
61 -27 5 -17 3 -28 -4 -31 -30 -10 -7 -22 43 -22 57 0 65 5 41 24 -8 6 -37 63
-65 126 -27 63 -55 116 -63 118 -8 1 -31 -41 -63 -119z m79 -27 c7 -20 4 -22
-33 -22 -23 0 -41 2 -41 4 0 2 9 26 21 53 l21 48 13 -31 c7 -17 16 -40 19 -52z"/>
<path d="M6311 998 c0 -30 1 -31 9 -10 8 18 17 22 50 22 l40 0 0 -99 c0 -108
-5 -131 -26 -131 -8 0 -14 -4 -14 -10 0 -6 27 -10 60 -10 33 0 60 4 60 10 0 6
-7 10 -15 10 -12 0 -15 19 -15 115 l0 115 40 0 c34 0 40 -3 40 -22 0 -27 5
-21 14 15 l6 27 -125 0 -125 0 1 -32z"/>
<path d="M6644 1016 c-34 -15 -44 -33 -44 -76 0 -35 14 -46 75 -60 56 -13 75
-25 75 -50 0 -61 -115 -67 -140 -7 -8 19 -9 16 -7 -13 2 -33 4 -35 48 -44 85
-16 153 38 135 107 -5 20 -16 29 -49 37 -60 16 -91 33 -95 52 -9 48 91 66 114
20 l11 -23 5 26 c3 14 2 28 -3 30 -21 13 -97 14 -125 1z"/>
<path d="M6921 998 c0 -30 1 -31 9 -10 8 18 17 22 50 22 l40 0 0 -99 c0 -108
-5 -131 -26 -131 -8 0 -14 -4 -14 -10 0 -6 27 -10 60 -10 33 0 60 4 60 10 0 6
-7 10 -15 10 -12 0 -15 19 -15 115 l0 115 40 0 c34 0 40 -3 40 -22 0 -27 5
-21 14 15 l6 27 -125 0 -125 0 1 -32z"/>
<path d="M7200 1022 c0 -5 7 -12 15 -16 12 -4 15 -26 15 -111 0 -85 -3 -107
-15 -111 -33 -13 -12 -24 45 -24 58 0 80 12 40 23 -18 5 -20 14 -20 116 l0
111 29 0 c33 0 61 -22 61 -48 0 -26 -27 -60 -50 -64 -18 -3 -16 -9 25 -70 42
-62 48 -68 80 -68 19 0 35 5 35 10 0 6 -6 10 -12 10 -7 0 -30 26 -50 57 l-36
56 29 28 c32 30 36 55 15 85 -12 16 -29 20 -110 22 -59 3 -96 0 -96 -6z"/>
<path d="M7565 909 c-27 -67 -55 -124 -62 -126 -27 -10 -12 -23 27 -23 22 0
40 5 40 10 0 6 -7 10 -15 10 -18 0 -19 14 -5 41 9 15 22 19 65 19 51 0 55 -2
61 -27 5 -17 3 -28 -4 -31 -30 -10 -7 -22 43 -22 57 0 65 5 41 24 -8 6 -37 63
-65 126 -27 63 -55 116 -63 118 -8 1 -31 -41 -63 -119z m79 -27 c7 -20 4 -22
-33 -22 -23 0 -41 2 -41 4 0 2 9 26 21 53 l21 48 13 -31 c7 -17 16 -40 19 -52z"/>
<path d="M7800 1021 c0 -6 7 -11 15 -11 12 0 15 -19 15 -109 0 -63 -4 -112
-10 -116 -25 -16 -5 -25 56 -25 145 0 205 39 212 139 4 54 2 61 -26 92 l-30
34 -116 3 c-80 3 -116 1 -116 -7z m203 -31 c47 -37 48 -140 2 -186 -19 -19
-35 -24 -75 -24 l-50 0 0 115 0 115 49 0 c34 0 56 -6 74 -20z"/>
<path d="M8130 1020 c0 -5 7 -10 15 -10 12 0 15 -19 15 -115 0 -96 -3 -115
-15 -115 -8 0 -15 -4 -15 -10 0 -6 27 -10 60 -10 33 0 60 4 60 10 0 6 -6 10
-14 10 -21 0 -26 23 -26 115 0 92 5 115 26 115 8 0 14 5 14 10 0 6 -27 10 -60
10 -33 0 -60 -4 -60 -10z"/>
<path d="M8395 1021 c-70 -18 -105 -61 -105 -129 0 -88 83 -141 197 -127 67 8
70 24 3 17 -84 -8 -131 24 -145 99 -13 68 33 129 96 129 51 0 69 -8 82 -39
l11 -26 4 29 c2 16 0 32 -5 37 -12 12 -104 19 -138 10z"/>
<path d="M8580 1020 c0 -5 7 -10 15 -10 12 0 15 -19 15 -115 0 -96 -3 -115
-15 -115 -8 0 -15 -4 -15 -10 0 -6 27 -10 60 -10 33 0 60 4 60 10 0 6 -6 10
-14 10 -21 0 -26 23 -26 115 0 92 5 115 26 115 8 0 14 5 14 10 0 6 -27 10 -60
10 -33 0 -60 -4 -60 -10z"/>
<path d="M8839 1021 c-46 -15 -69 -31 -85 -63 -23 -44 -14 -121 16 -153 61
-65 206 -50 245 25 24 46 20 122 -9 153 -36 39 -108 55 -167 38z m112 -37 c20
-22 24 -36 24 -89 0 -53 -4 -67 -24 -89 -34 -36 -93 -36 -125 -1 -43 47 -45
137 -3 183 30 32 95 31 128 -4z"/>
<path d="M9070 1020 c0 -5 7 -10 15 -10 12 0 15 -19 15 -115 0 -96 -3 -115
-15 -115 -8 0 -15 -4 -15 -10 0 -5 18 -10 40 -10 43 0 49 6 25 24 -13 9 -15
29 -13 100 l3 88 67 -78 c88 -104 117 -134 128 -134 6 0 10 46 10 109 0 118 4
141 26 141 8 0 14 5 14 10 0 6 -20 10 -45 10 -25 0 -45 -4 -45 -10 0 -5 6 -10
14 -10 7 0 16 -14 20 -31 9 -48 7 -149 -3 -149 -6 0 -45 45 -88 99 -74 94 -80
100 -115 100 -21 1 -38 -3 -38 -9z"/>
<path d="M9475 909 c-27 -67 -55 -124 -62 -126 -27 -10 -12 -23 27 -23 22 0
40 5 40 10 0 6 -7 10 -15 10 -18 0 -19 14 -5 41 9 15 22 19 65 19 51 0 55 -2
61 -27 5 -17 3 -28 -4 -31 -30 -10 -7 -22 43 -22 57 0 65 5 41 24 -8 6 -37 63
-65 126 -27 63 -55 116 -63 118 -8 1 -31 -41 -63 -119z m79 -27 c7 -20 4 -22
-33 -22 -23 0 -41 2 -41 4 0 2 9 26 21 53 l21 48 13 -31 c7 -17 16 -40 19 -52z"/>
<path d="M9710 1020 c0 -5 7 -10 15 -10 12 0 15 -19 15 -109 0 -63 -4 -112
-10 -116 -28 -17 -1 -25 84 -25 100 0 107 3 106 53 -1 20 -2 20 -16 -5 -13
-25 -20 -28 -64 -28 l-50 0 0 111 c0 102 2 111 20 116 40 11 18 23 -40 23 -33
0 -60 -4 -60 -10z"/>
<path d="M10004 1016 c-34 -15 -44 -33 -44 -76 0 -35 14 -46 75 -60 56 -13 75
-25 75 -50 0 -61 -115 -67 -140 -7 -8 19 -9 16 -7 -13 2 -33 4 -35 48 -44 85
-16 153 38 135 107 -5 20 -16 29 -49 37 -60 16 -91 33 -95 52 -9 48 91 66 114
20 l11 -23 5 26 c3 14 2 28 -3 30 -21 13 -97 14 -125 1z"/>
<path d="M10290 1020 c0 -5 7 -10 15 -10 12 0 15 -19 15 -115 0 -96 -3 -115
-15 -115 -8 0 -15 -4 -15 -10 0 -6 27 -10 60 -10 33 0 60 4 60 10 0 6 -6 10
-14 10 -21 0 -26 23 -26 115 0 92 5 115 26 115 8 0 14 5 14 10 0 6 -27 10 -60
10 -33 0 -60 -4 -60 -10z"/>
<path d="M10550 1020 c0 -5 7 -10 15 -10 12 0 15 -19 15 -115 0 -96 -3 -115
-15 -115 -8 0 -15 -4 -15 -10 0 -6 27 -10 60 -10 58 0 80 12 40 23 -17 4 -20
14 -20 56 l0 51 35 0 c28 0 38 -5 45 -22 7 -18 9 -12 8 27 0 28 -2 42 -5 33
-3 -13 -15 -18 -44 -18 l-39 0 0 50 0 50 45 0 c38 0 47 -4 55 -22 8 -21 9 -20
9 10 l1 32 -95 0 c-57 0 -95 -4 -95 -10z"/>
<path d="M10869 1021 c-46 -15 -69 -31 -85 -63 -23 -44 -14 -121 16 -153 61
-65 206 -50 245 25 24 46 20 122 -9 153 -36 39 -108 55 -167 38z m112 -37 c20
-22 24 -36 24 -89 0 -53 -4 -67 -24 -89 -34 -36 -93 -36 -125 -1 -43 47 -45
137 -3 183 30 32 95 31 128 -4z"/>
<path d="M11100 1020 c0 -5 7 -10 15 -10 12 0 15 -19 15 -110 0 -89 -3 -112
-15 -116 -28 -11 -15 -24 25 -24 22 0 40 5 40 10 0 6 -7 10 -15 10 -12 0 -15
17 -14 98 l0 97 56 -110 56 -110 53 108 c30 59 56 107 59 107 3 0 5 -43 5 -95
0 -78 -3 -95 -15 -95 -8 0 -15 -4 -15 -10 0 -5 25 -10 55 -10 30 0 55 5 55 10
0 6 -7 10 -15 10 -12 0 -15 19 -15 110 0 89 3 112 15 116 28 11 15 24 -25 24
l-40 0 -49 -97 -49 -98 -48 98 -49 97 -42 0 c-24 0 -43 -4 -43 -10z"/>
<path d="M11500 1020 c0 -5 7 -10 15 -10 12 0 15 -19 15 -109 0 -63 -4 -112
-10 -116 -28 -17 -1 -25 84 -25 98 0 107 4 105 48 0 13 -3 11 -11 -5 -9 -20
-19 -23 -65 -23 l-53 0 0 55 0 55 38 0 c30 0 41 -5 50 -22 9 -20 11 -16 11 27
0 39 -2 46 -10 33 -7 -12 -22 -18 -49 -18 l-40 0 0 50 0 50 50 0 c43 0 52 -3
60 -22 8 -21 9 -20 9 10 l1 32 -100 0 c-60 0 -100 -4 -100 -10z"/>
<path d="M11740 1020 c0 -5 7 -10 15 -10 12 0 15 -19 15 -115 0 -96 -3 -115
-15 -115 -8 0 -15 -4 -15 -10 0 -5 18 -10 40 -10 43 0 49 6 25 24 -13 9 -15
29 -13 100 l3 88 67 -78 c88 -104 117 -134 128 -134 6 0 10 46 10 109 0 118 4
141 26 141 8 0 14 5 14 10 0 6 -20 10 -45 10 -25 0 -45 -4 -45 -10 0 -5 6 -10
14 -10 7 0 16 -14 20 -31 9 -48 7 -149 -3 -149 -6 0 -45 45 -88 99 -74 94 -80
100 -115 100 -21 1 -38 -3 -38 -9z"/>
<path d="M12061 998 c0 -30 1 -31 9 -10 8 18 17 22 50 22 l40 0 0 -99 c0 -108
-5 -131 -26 -131 -8 0 -14 -4 -14 -10 0 -6 27 -10 60 -10 33 0 60 4 60 10 0 6
-7 10 -15 10 -12 0 -15 19 -15 115 l0 115 40 0 c34 0 40 -3 40 -22 0 -27 5
-21 14 15 l6 27 -125 0 -125 0 1 -32z"/>
<path d="M12440 1021 c0 -6 7 -11 15 -11 12 0 15 -19 15 -109 0 -63 -4 -112
-10 -116 -25 -16 -5 -25 56 -25 145 0 205 39 212 139 4 54 2 61 -26 92 l-30
34 -116 3 c-80 3 -116 1 -116 -7z m203 -31 c47 -37 48 -140 2 -186 -19 -19
-35 -24 -75 -24 l-50 0 0 115 0 115 49 0 c34 0 56 -6 74 -20z"/>
<path d="M12770 1020 c0 -5 7 -10 15 -10 12 0 15 -19 15 -109 0 -63 -4 -112
-10 -116 -28 -17 -1 -25 84 -25 98 0 107 4 105 48 0 13 -3 11 -11 -5 -9 -20
-19 -23 -65 -23 l-53 0 0 55 0 55 38 0 c30 0 41 -5 50 -22 9 -20 11 -16 11 27
0 39 -2 46 -10 33 -7 -12 -22 -18 -49 -18 l-40 0 0 50 0 50 50 0 c43 0 52 -3
60 -22 8 -21 9 -20 9 10 l1 32 -100 0 c-60 0 -100 -4 -100 -10z"/>
<path d="M13110 1020 c0 -5 7 -10 15 -10 12 0 15 -19 15 -109 0 -63 -4 -112
-10 -116 -28 -17 -1 -25 84 -25 100 0 107 3 106 53 -1 20 -2 20 -16 -5 -13
-25 -20 -28 -64 -28 l-50 0 0 111 c0 102 2 111 20 116 40 11 18 23 -40 23 -33
0 -60 -4 -60 -10z"/>
<path d="M13425 909 c-27 -67 -55 -124 -62 -126 -27 -10 -12 -23 27 -23 22 0
40 5 40 10 0 6 -7 10 -15 10 -18 0 -19 14 -5 41 9 15 22 19 65 19 51 0 55 -2
61 -27 5 -17 3 -28 -4 -31 -30 -10 -7 -22 43 -22 57 0 65 5 41 24 -8 6 -37 63
-65 126 -27 63 -55 116 -63 118 -8 1 -31 -41 -63 -119z m79 -27 c7 -20 4 -22
-33 -22 -23 0 -41 2 -41 4 0 2 9 26 21 53 l21 48 13 -31 c7 -17 16 -40 19 -52z"/>
<path d="M13760 1020 c0 -5 7 -10 15 -10 12 0 15 -19 15 -109 0 -63 -4 -112
-10 -116 -43 -27 85 -36 145 -11 65 27 73 107 14 128 l-30 10 31 19 c39 24 39
67 0 86 -30 15 -180 18 -180 3z m153 -32 c18 -28 -7 -68 -43 -68 -29 0 -30 2
-30 46 0 45 0 45 31 42 18 -2 37 -11 42 -20z m7 -120 c13 -25 13 -31 0 -55
-11 -20 -25 -29 -48 -31 l-32 -3 0 61 0 61 32 -3 c23 -2 37 -11 48 -30z"/>
<path d="M14030 1020 c0 -5 7 -10 15 -10 12 0 15 -19 15 -115 0 -96 -3 -115
-15 -115 -8 0 -15 -4 -15 -10 0 -6 27 -10 60 -10 33 0 60 4 60 10 0 6 -6 10
-14 10 -21 0 -26 23 -26 115 0 92 5 115 26 115 8 0 14 5 14 10 0 6 -27 10 -60
10 -33 0 -60 -4 -60 -10z"/>
<path d="M14289 1021 c-46 -15 -69 -31 -85 -63 -23 -44 -14 -121 16 -153 61
-65 206 -50 245 25 24 46 20 122 -9 153 -36 39 -108 55 -167 38z m112 -37 c20
-22 24 -36 24 -89 0 -53 -4 -67 -24 -89 -34 -36 -93 -36 -125 -1 -43 47 -45
137 -3 183 30 32 95 31 128 -4z"/>
<path d="M14520 1021 c0 -6 7 -11 15 -11 12 0 15 -19 15 -109 0 -63 -4 -112
-10 -116 -25 -16 -5 -25 56 -25 145 0 205 39 212 139 4 54 2 61 -26 92 l-30
34 -116 3 c-80 3 -116 1 -116 -7z m203 -31 c47 -37 48 -140 2 -186 -19 -19
-35 -24 -75 -24 l-50 0 0 115 0 115 49 0 c34 0 56 -6 74 -20z"/>
<path d="M14850 1020 c0 -5 7 -10 15 -10 12 0 15 -19 15 -115 0 -96 -3 -115
-15 -115 -8 0 -15 -4 -15 -10 0 -6 27 -10 60 -10 33 0 60 4 60 10 0 6 -6 10
-14 10 -21 0 -26 23 -26 115 0 92 5 115 26 115 8 0 14 5 14 10 0 6 -27 10 -60
10 -33 0 -60 -4 -60 -10z"/>
<path d="M15000 1021 c0 -5 6 -11 14 -14 7 -3 37 -60 66 -126 30 -69 59 -121
66 -121 8 0 14 4 14 9 0 25 104 241 116 241 8 0 14 5 14 10 0 6 -20 10 -45 10
-25 0 -45 -4 -45 -10 0 -5 7 -10 15 -10 22 0 19 -18 -19 -106 l-35 -79 -30 69
c-42 92 -47 116 -27 116 9 0 16 5 16 10 0 6 -27 10 -60 10 -33 0 -60 -4 -60
-9z"/>
<path d="M15320 1020 c0 -5 7 -10 15 -10 12 0 15 -19 15 -109 0 -63 -4 -112
-10 -116 -28 -17 -1 -25 84 -25 98 0 107 4 105 48 0 13 -3 11 -11 -5 -9 -20
-19 -23 -65 -23 l-53 0 0 55 0 55 38 0 c30 0 41 -5 50 -22 9 -20 11 -16 11 27
0 39 -2 46 -10 33 -7 -12 -22 -18 -49 -18 l-40 0 0 50 0 50 50 0 c43 0 52 -3
60 -22 8 -21 9 -20 9 10 l1 32 -100 0 c-60 0 -100 -4 -100 -10z"/>
<path d="M15560 1022 c0 -5 7 -12 15 -16 12 -4 15 -26 15 -111 0 -85 -3 -107
-15 -111 -33 -13 -12 -24 45 -24 58 0 80 12 40 23 -18 5 -20 14 -20 116 l0
111 29 0 c33 0 61 -22 61 -48 0 -26 -27 -60 -50 -64 -18 -3 -16 -9 25 -70 42
-62 48 -68 80 -68 19 0 35 5 35 10 0 6 -6 10 -12 10 -7 0 -30 26 -50 57 l-36
56 29 28 c32 30 36 55 15 85 -12 16 -29 20 -110 22 -59 3 -96 0 -96 -6z"/>
<path d="M15904 1016 c-34 -15 -44 -33 -44 -76 0 -35 19 -50 77 -61 52 -10 73
-24 73 -49 0 -61 -115 -67 -140 -7 -8 19 -9 16 -7 -13 2 -33 4 -35 48 -44 85
-16 153 38 135 107 -5 20 -16 29 -49 37 -60 16 -91 33 -95 52 -9 48 91 66 114
20 l11 -23 5 26 c3 14 2 28 -3 30 -21 13 -97 14 -125 1z"/>
<path d="M16090 1020 c0 -5 7 -10 15 -10 12 0 15 -19 15 -115 0 -96 -3 -115
-15 -115 -8 0 -15 -4 -15 -10 0 -6 27 -10 60 -10 33 0 60 4 60 10 0 6 -6 10
-14 10 -21 0 -26 23 -26 115 0 92 5 115 26 115 8 0 14 5 14 10 0 6 -27 10 -60
10 -33 0 -60 -4 -60 -10z"/>
<path d="M16241 998 c0 -30 1 -31 9 -10 8 18 17 22 50 22 l40 0 0 -99 c0 -108
-5 -131 -26 -131 -8 0 -14 -4 -14 -10 0 -6 27 -10 60 -10 33 0 60 4 60 10 0 6
-7 10 -15 10 -12 0 -15 19 -15 115 l0 115 40 0 c34 0 40 -3 40 -22 0 -27 5
-21 14 15 l6 27 -125 0 -125 0 1 -32z"/>
<path d="M16595 909 c-27 -67 -55 -124 -62 -126 -27 -10 -12 -23 27 -23 22 0
40 5 40 10 0 6 -7 10 -15 10 -18 0 -19 14 -5 41 14 25 114 28 124 3 10 -27 7
-44 -9 -44 -8 0 -15 -4 -15 -10 0 -6 27 -10 60 -10 62 0 71 5 46 24 -8 6 -37
63 -65 126 -27 63 -55 116 -63 118 -8 1 -31 -41 -63 -119z m79 -27 c7 -20 4
-22 -33 -22 -23 0 -41 2 -41 4 0 2 9 26 21 53 l21 48 13 -31 c7 -17 16 -40 19
-52z"/>
<path d="M16821 998 c0 -30 1 -31 9 -10 8 18 17 22 50 22 l40 0 0 -99 c0 -108
-5 -131 -26 -131 -8 0 -14 -4 -14 -10 0 -6 27 -10 60 -10 33 0 60 4 60 10 0 6
-7 10 -15 10 -12 0 -15 19 -15 115 l0 115 40 0 c34 0 40 -3 40 -22 0 -27 5
-21 14 15 l6 27 -125 0 -125 0 1 -32z"/>
</g>
</svg>
